{
.appVersion = "3343";
.formatVersion = 3;
DisplayStrings = (
"aäbcdefghijklmnoöpqrsßtuüvwxyz",
nchHbaono,
w
);
date = "2025-02-16 11:19:15 +0000";
familyName = OHamburgC;
featurePrefixes = (
{
automatic = 1;
code = "languagesystem DFLT dflt;
";
name = Languagesystems;
}
);
fontMaster = (
{
customParameters = (
{
name = unitizerUnit;
value = "18";
}
);
iconName = SemiLight_SemiCondensed;
id = m003;
metricValues = (
{
over = 11;
pos = 637;
},
{
over = 11;
pos = 616;
},
{
over = 11;
pos = 402;
},
{
over = -8;
},
{
over = -8;
pos = -230;
},
{
pos = 15;
},
{
}
);
name = Italic;
stemValues = (
28,
81
);
userData = {
GSCornerRadius = 25;
GSOffsetHorizontal = 2;
GSOffsetVertical = 2;
};
}
);
glyphs = (
{
glyphname = A;
lastChange = "2025-02-24 19:13:26 +0000";
layers = (
{
anchors = (
{
name = bottom;
pos = (272,0);
},
{
name = ogonek;
pos = (549,10);
},
{
name = top;
pos = (482,616);
}
);
color = 4;
layerId = m003;
shapes = (
{
closed = 1;
nodes = (
(600,0,l),
(607,25,l),
(540,39,o),
(526,64,o),
(515,135,cs),
(493,306,o),
(471,477,o),
(449,648,c),
(389,576,l),
(375,550,l),
(423,139,ls),
(434,42,o),
(424,43,o),
(337,25,c),
(330,0,l)
);
},
{
closed = 1;
nodes = (
(186,0,l),
(193,25,l),
(119,31,o),
(98,57,o),
(145,130,cs),
(419,564,l),
(389,576,l),
(278,404,o),
(156,198,o),
(63,83,cs),
(35,49,o),
(-15,25,o),
(-59,25,c),
(-66,0,l)
);
},
{
closed = 1;
nodes = (
(453,258,l),
(449,298,l),
(226,298,l),
(199,258,l)
);
}
);
width = 666;
}
);
unicode = 65;
},
{
glyphname = B;
lastChange = "2025-02-24 19:13:26 +0000";
layers = (
{
anchors = (
{
name = bottom;
pos = (230,0);
},
{
name = center;
pos = (131,154);
},
{
name = top;
pos = (440,616);
}
);
color = 2;
guides = (
{
angle = 270;
pos = (-22,13);
}
);
layerId = m003;
shapes = (
{
closed = 1;
nodes = (
(-25,0,l),
(266,0,l),
(276,40,l),
(231,40,o),
(189,34,o),
(175,50,cs),
(167,58,o),
(162,73,o),
(166,91,cs),
(224,307,o),
(242,377,o),
(295,574,c),
(312,576,o),
(376,576,o),
(399,576,c),
(410,616,l),
(139,616,l),
(132,591,l),
(166,586,o),
(189,582,o),
(201,572,cs),
(209,565,o),
(210,552,o),
(203,525,cs),
(156,341,o),
(133,253,o),
(149,312,cs),
(165,373,o),
(140,282,o),
(88,91,cs),
(81,65,o),
(72,51,o),
(61,43,cs),
(41,29,o),
(15,31,o),
(-18,25,c)
);
},
{
closed = 1;
nodes = (
(218,318,o),
(230,318,o),
(258,318,cs),
(420,318,o),
(539,378,o),
(567,481,cs),
(588,560,o),
(523,616,o),
(410,616,c),
(399,576,l),
(460,576,o),
(490,529,o),
(473,462,cs),
(453,387,o),
(373,348,o),
(259,348,cs),
(199,348,l),
(192,318,l)
);
},
{
closed = 1;
nodes = (
(391,0,o),
(500,79,o),
(530,191,cs),
(554,280,o),
(483,333,o),
(363,338,cs),
(181,346,l),
(172,314,l),
(194,314,o),
(206,314,o),
(243,314,cs),
(378,314,o),
(458,263,o),
(433,171,cs),
(413,94,o),
(346,40,o),
(276,40,c),
(266,0,l)
);
}
);
width = 576;
}
);
metricLeft = H;
unicode = 66;
},
{
glyphname = C;
lastChange = "2025-02-24 19:13:26 +0000";
layers = (
{
anchors = (
{
name = bottom;
pos = (269,0);
},
{
name = top;
pos = (479,616);
}
);
background = {
shapes = (
{
closed = 1;
nodes = (
(338,588,l),
(434,588,o),
(504,528,o),
(509,444,c),
(540,444,l),
(542,495,o),
(549,558,o),
(556,595,c),
(506,614,o),
(412,627,o),
(330,627,c)
);
}
);
};
backgroundImage = {
imagePath = "../../Desktop/Bildschirmfoto 2024-12-24 um 08.52.09.png";
pos = (634,-952);
scale = (-1.4,1.4);
slant = (2,0);
};
color = 4;
layerId = m003;
shapes = (
{
closed = 1;
nodes = (
(395,-11,o),
(493,9,o),
(557,38,c),
(593,106,o),
(627,174,o),
(638,201,c),
(602,200,l),
(553,102,o),
(428,33,o),
(330,33,cs),
(176,33,o),
(110,158,o),
(157,335,cs),
(196,482,o),
(343,588,o),
(492,588,cs),
(590,588,o),
(644,528,o),
(627,444,c),
(658,444,l),
(671,489,o),
(694,551,o),
(713,595,c),
(668,614,o),
(576,627,o),
(490,627,cs),
(283,627,o),
(105,496,o),
(56,312,cs),
(5,123,o),
(113,-11,o),
(320,-11,cs)
);
}
);
width = 666;
},
{
anchors = (
{
name = bottom;
pos = (408,0);
},
{
name = top;
pos = (407,616);
}
);
associatedMasterId = m003;
background = {
shapes = (
{
closed = 1;
nodes = (
(418,588,l),
(514,588,o),
(584,528,o),
(589,444,c),
(620,444,l),
(622,495,o),
(629,558,o),
(636,595,c),
(586,614,o),
(492,627,o),
(410,627,c)
);
}
);
};
backgroundImage = {
imagePath = "../../Desktop/Bildschirmfoto 2024-12-24 um 08.52.09.png";
pos = (714,-952);
scale = (-1.4,1.4);
};
color = 4;
layerId = "A8205263-60D0-4B63-B521-8F6B441CF343";
name = "11. Jan. 25, 13:19";
shapes = (
{
closed = 1;
nodes = (
(479,-11,o),
(572,9,o),
(628,38,c),
(646,106,o),
(662,174,o),
(666,201,c),
(630,200,l),
(606,102,o),
(520,33,o),
(422,33,cs),
(268,33,o),
(156,158,o),
(156,335,cs),
(156,482,o),
(265,586,o),
(414,586,cs),
(506,586,o),
(582,522,o),
(597,432,c),
(637,432,l),
(634,599,l),
(584,573,l),
(551,605,o),
(477,627,o),
(404,627,cs),
(197,627,o),
(54,496,o),
(54,312,cs),
(54,123,o),
(197,-11,o),
(404,-11,cs)
);
}
);
width = 720;
}
);
metricLeft = O;
metricRight = H;
unicode = 67;
},
{
glyphname = D;
lastChange = "2025-02-24 19:13:26 +0000";
layers = (
{
anchors = (
{
name = bottom;
pos = (291,0);
},
{
name = center;
pos = (214,308);
},
{
name = top;
pos = (501,616);
}
);
background = {
shapes = (
{
closed = 1;
nodes = (
(-22,0,l),
(261,0,l),
(261,40,l),
(216,40,o),
(181,38,o),
(162,54,cs),
(153,62,o),
(148,73,o),
(148,91,cs),
(146,307,o),
(145,377,o),
(149,574,c),
(166,576,o),
(218,576,o),
(241,576,c),
(241,616,l),
(-22,616,l),
(-22,591,l),
(12,581,o),
(36,582,o),
(50,572,cs),
(60,565,o),
(65,552,o),
(65,525,cs),
(66,341,o),
(67,253,o),
(67,312,cs),
(67,373,o),
(66,282,o),
(65,91,cs),
(65,65,o),
(59,51,o),
(50,43,cs),
(34,29,o),
(8,31,o),
(-22,25,c)
);
}
);
};
backgroundImage = {
imagePath = "../../Desktop/Bildschirmfoto 2024-12-24 um 13.06.05.png";
pos = (717,-1011);
scale = (-1.4,1.4);
slant = (2,0);
};
color = 2;
layerId = m003;
shapes = (
{
closed = 1;
nodes = (
(-25,0,l),
(-2,0,o),
(60,0,o),
(102,0,cs),
(102,0,o),
(143,1,o),
(260,-3,c),
(265,38,l),
(213,38,o),
(193,33,o),
(176,55,cs),
(169,63,o),
(167,74,o),
(171,91,cs),
(198,189,o),
(274,476,o),
(301,574,c),
(347,577,o),
(399,578,o),
(445,578,c),
(453,619,l),
(372,618,o),
(309,616,o),
(269,616,c),
(223,616,o),
(170,616,o),
(139,616,c),
(132,590,l),
(168,583,o),
(190,582,o),
(201,572,cs),
(210,565,o),
(210,552,o),
(203,525,cs),
(174,411,o),
(152,323,o),
(149,312,cs),
(147,302,o),
(120,210,o),
(88,91,cs),
(81,66,o),
(73,52,o),
(61,43,cs),
(43,31,o),
(18,30,o),
(-18,25,c)
);
},
{
closed = 1;
nodes = (
(260,-3,l),
(462,-2,o),
(641,135,o),
(691,327,cs),
(737,498,o),
(639,619,o),
(453,619,c),
(445,578,l),
(586,578,o),
(635,462,o),
(591,298,cs),
(551,146,o),
(404,38,o),
(265,38,c)
);
}
);
width = 684;
}
);
metricLeft = H;
metricRight = O;
unicode = 68;
},
{
glyphname = E;
lastChange = "2025-02-24 19:13:26 +0000";
layers = (
{
anchors = (
{
name = bottom;
pos = (216,0);
},
{
name = ogonek;
pos = (449,10);
},
{
name = top;
pos = (426,616);
},
{
name = topleft;
pos = (158,616);
}
);
color = 2;
guides = (
{
angle = 77.035;
lockAngle = 1;
pos = (52,-67);
}
);
layerId = m003;
shapes = (
{
closed = 1;
nodes = (
(1,-1,o),
(49,0,o),
(94,0,c),
(237,0,o),
(395,-1,o),
(471,-3,c),
(496,44,o),
(523,110,o),
(537,157,c),
(508,157,l),
(479,90,o),
(428,43,o),
(383,40,cs),
(351,38,o),
(287,37,o),
(230,37,cs),
(196,37,o),
(181,42,o),
(173,52,cs),
(165,62,o),
(167,76,o),
(171,96,cs),
(216,265,o),
(256,416,o),
(300,576,c),
(337,578,o),
(366,578,o),
(388,578,cs),
(416,578,o),
(451,578,o),
(483,576,cs),
(508,574,o),
(523,544,o),
(518,499,c),
(552,499,l),
(564,536,o),
(581,586,o),
(598,619,c),
(532,617,o),
(389,616,o),
(268,616,c),
(219,616,o),
(167,617,o),
(139,618,c),
(131,589,l),
(164,584,o),
(187,581,o),
(199,567,cs),
(205,558,o),
(208,544,o),
(201,521,c),
(87,91,l),
(80,67,o),
(72,52,o),
(59,42,cs),
(42,29,o),
(18,26,o),
(-20,23,c),
(-26,-2,l)
);
},
{
closed = 1;
nodes = (
(409,206,l),
(421,272,o),
(446,364,o),
(468,430,c),
(442,430,l),
(440,424,o),
(431,410,o),
(422,396,c),
(396,360,o),
(367,336,o),
(307,336,cs),
(177,336,l),
(165,296,l),
(295,296,ls),
(362,296,o),
(379,274,o),
(382,242,cs),
(384,206,l)
);
}
);
width = 558;
}
);
metricLeft = H;
metricRight = H;
unicode = 69;
},
{
glyphname = F;
lastChange = "2025-02-24 19:13:26 +0000";
layers = (
{
anchors = (
{
name = bottom;
pos = (188,0);
},
{
name = top;
pos = (398,616);
}
);
background = {
shapes = (
{
closed = 1;
nodes = (
(-24,0,l),
(259,0,l),
(259,40,l),
(214,40,o),
(179,38,o),
(160,54,cs),
(151,62,o),
(146,73,o),
(146,91,cs),
(144,307,o),
(143,377,o),
(147,574,c),
(164,576,o),
(216,576,o),
(239,576,c),
(239,616,l),
(-24,616,l),
(-24,591,l),
(10,581,o),
(34,582,o),
(48,572,cs),
(58,565,o),
(63,552,o),
(63,525,cs),
(64,341,o),
(65,253,o),
(65,312,cs),
(65,373,o),
(64,282,o),
(63,91,cs),
(63,65,o),
(57,51,o),
(48,43,cs),
(32,29,o),
(6,31,o),
(-24,25,c)
);
}
);
};
color = 2;
layerId = m003;
shapes = (
{
closed = 1;
nodes = (
(0,0,o),
(206,0,o),
(261,0,c),
(269,29,l),
(218,35,o),
(185,35,o),
(172,54,cs),
(166,64,o),
(165,79,o),
(172,103,cs),
(211,260,o),
(255,421,o),
(299,578,c),
(321,579,o),
(370,580,o),
(392,580,cs),
(420,580,o),
(442,580,o),
(473,578,cs),
(498,576,o),
(512,544,o),
(507,499,c),
(539,499,l),
(552,536,o),
(571,586,o),
(588,619,c),
(522,617,o),
(387,616,o),
(267,616,c),
(218,616,o),
(167,617,o),
(139,618,c),
(132,592,l),
(164,586,o),
(187,584,o),
(199,572,cs),
(206,563,o),
(208,550,o),
(201,525,cs),
(165,380,o),
(126,236,o),
(86,91,cs),
(79,67,o),
(72,53,o),
(61,44,cs),
(44,30,o),
(20,27,o),
(-21,23,c),
(-27,-1,l)
);
},
{
closed = 1;
nodes = (
(403,206,l),
(414,272,o),
(439,364,o),
(462,430,c),
(437,430,l),
(435,424,o),
(426,410,o),
(417,396,c),
(391,360,o),
(362,336,o),
(320,336,cs),
(186,336,l),
(174,296,l),
(308,296,ls),
(357,296,o),
(374,274,o),
(377,242,cs),
(379,206,l)
);
}
);
width = 504;
}
);
metricLeft = H;
metricRight = O;
unicode = 70;
},
{
glyphname = G;
lastChange = "2025-02-24 19:13:26 +0000";
layers = (
{
anchors = (
{
name = bottom;
pos = (282,0);
},
{
name = top;
pos = (492,616);
}
);
backgroundImage = {
imagePath = "../../Desktop/Bildschirmfoto 2024-12-23 um 19.38.00.png";
pos = (635,-876);
scale = (-1.37,1.3692);
slant = (1.9988,0);
};
color = 3;
layerId = m003;
shapes = (
{
closed = 1;
nodes = (
(404,-11,o),
(511,11,o),
(575,43,c),
(574,56,l),
(556,57,o),
(548,67,o),
(552,79,c),
(584,200,l),
(591,225,o),
(610,247,o),
(634,252,c),
(672,258,l),
(679,287,l),
(427,287,l),
(418,253,l),
(469,244,o),
(508,225,o),
(498,188,c),
(469,76,l),
(463,55,o),
(402,33,o),
(357,33,cs),
(175,33,o),
(106,141,o),
(157,333,cs),
(196,482,o),
(339,588,o),
(494,588,cs),
(590,588,o),
(643,528,o),
(627,444,c),
(658,444,l),
(672,495,o),
(696,558,o),
(713,595,c),
(668,614,o),
(578,627,o),
(496,627,cs),
(291,627,o),
(104,495,o),
(55,308,cs),
(5,121,o),
(119,-11,o),
(320,-11,cs)
);
}
);
width = 684;
}
);
metricLeft = O;
metricRight = O;
unicode = 71;
},
{
glyphname = H;
lastChange = "2025-02-25 18:43:55 +0000";
layers = (
{
anchors = (
{
name = bottom;
pos = (321,0);
},
{
name = center;
pos = (478,462);
},
{
name = top;
pos = (531,616);
},
{
name = topleft;
pos = (158,616);
}
);
background = {
shapes = (
{
closed = 1;
nodes = (
(138,609,l,{
"Letterink-NibData" = {
AngleInDegrees = "0";
};
}),
(134,616,l,{
"Letterink-NibData" = {
AngleInDegrees = "360";
};
}),
(65,576,l),
(65,7,l,{
"Letterink-NibData" = {
AngleInDegrees = "360";
};
}),
(69,0,l,{
"Letterink-NibData" = {
AngleInDegrees = "360";
};
}),
(138,40,l),
(138,304,l),
(552,304,l),
(552,7,l,{
"Letterink-NibData" = {
AngleInDegrees = "360";
};
}),
(556,0,l,{
"Letterink-NibData" = {
AngleInDegrees = "360";
};
}),
(626,40,l),
(626,609,l,{
"Letterink-NibData" = {
AngleInDegrees = "0";
};
}),
(622,616,l,{
"Letterink-NibData" = {
AngleInDegrees = "359.99999";
};
}),
(552,576,l),
(552,351,l),
(138,351,l)
);
},
{
closed = 0;
nodes = (
(210,616,l),
(210,591,l),
(182,583,o),
(164,576,o),
(153,564,cs),
(144,553,o),
(140,538,o),
(140,512,cs)
);
}
);
};
color = 1;
layerId = m003;
shapes = (
{
closed = 1;
nodes = (
(55,2,o),
(155,2,o),
(245,0,c),
(252,25,l),
(223,33,o),
(181,39,o),
(174,51,cs),
(166,61,o),
(166,77,o),
(173,104,cs),
(191,178,o),
(211,252,o),
(229,326,cs),
(246,388,o),
(264,450,o),
(281,512,cs),
(288,539,o),
(298,556,o),
(310,565,cs),
(324,577,o),
(369,583,o),
(402,591,c),
(409,616,l),
(318,614,o),
(219,614,o),
(130,616,c),
(123,591,l),
(143,583,o),
(193,576,o),
(201,564,cs),
(207,553,o),
(207,538,o),
(200,512,cs),
(185,450,o),
(170,389,o),
(152,327,cs),
(133,253,o),
(112,178,o),
(92,104,cs),
(85,78,o),
(77,63,o),
(65,52,cs),
(50,40,o),
(-4,33,o),
(-28,25,c),
(-35,0,l)
);
},
{
closed = 1;
nodes = (
(515,2,o),
(612,2,o),
(702,0,c),
(709,25,l),
(690,33,o),
(642,39,o),
(635,51,cs),
(627,61,o),
(627,77,o),
(634,104,cs),
(652,179,o),
(673,255,o),
(692,330,cs),
(707,391,o),
(725,451,o),
(742,512,cs),
(749,539,o),
(757,554,o),
(771,565,cs),
(785,577,o),
(837,583,o),
(860,591,c),
(867,616,l),
(776,614,o),
(678,614,o),
(589,616,c),
(582,591,l),
(612,583,o),
(654,576,o),
(662,564,cs),
(668,553,o),
(668,538,o),
(661,512,cs),
(646,451,o),
(631,390,o),
(614,329,cs),
(595,254,o),
(573,179,o),
(553,104,cs),
(546,78,o),
(538,63,o),
(526,52,cs),
(511,40,o),
(466,33,o),
(432,25,c),
(425,0,l)
);
},
{
closed = 1;
nodes = (
(639,304,l),
(651,349,l),
(204,349,l),
(192,304,l)
);
}
);
width = 774;
}
);
note = H;
unicode = 72;
},
{
glyphname = I;
lastChange = "2025-02-25 18:42:44 +0000";
layers = (
{
anchors = (
{
name = bottom;
pos = (87,0);
},
{
name = ogonek;
pos = (217,10);
},
{
name = top;
pos = (297,616);
},
{
name = topleft;
pos = (158,616);
}
);
color = 1;
layerId = m003;
shapes = (
{
closed = 1;
nodes = (
(-36,0,l),
(234,0,l),
(241,25,l),
(203,31,o),
(173,32,o),
(163,41,cs),
(155,49,o),
(155,63,o),
(162,91,c),
(277,525,l),
(285,555,o),
(299,570,o),
(315,577,cs),
(334,586,o),
(366,586,o),
(392,591,c),
(399,616,l),
(129,616,l),
(123,593,l),
(158,587,o),
(191,586,o),
(202,575,cs),
(210,566,o),
(210,552,o),
(203,525,c),
(88,91,l),
(80,62,o),
(73,47,o),
(60,39,cs),
(42,27,o),
(7,30,o),
(-29,25,c)
);
}
);
width = 306;
}
);
metricLeft = H;
metricRight = H;
note = I;
unicode = 73;
},
{
glyphname = J;
lastChange = "2025-02-24 19:13:26 +0000";
layers = (
{
anchors = (
{
name = bottom;
pos = (72,0);
},
{
name = top;
pos = (282,616);
}
);
color = 1;
layerId = m003;
shapes = (
{
closed = 1;
nodes = (
(-71,-232,o),
(-5,-190,o),
(20,-164,cs),
(86,-96,o),
(152,29,o),
(181,148,cs),
(231,341,o),
(229,332,o),
(281,525,cs),
(289,555,o),
(298,569,o),
(313,577,cs),
(329,584,o),
(352,585,o),
(388,591,c),
(395,616,l),
(143,616,l),
(136,591,l),
(170,587,o),
(193,586,o),
(206,574,cs),
(214,565,o),
(215,551,o),
(208,525,cs),
(91,81,ls),
(78,33,o),
(45,-90,o),
(1,-138,cs),
(-9,-150,o),
(-20,-157,o),
(-32,-157,cs),
(-52,-158,o),
(-48,-135,o),
(-67,-134,cs),
(-100,-134,o),
(-131,-163,o),
(-141,-205,cs),
(-146,-220,o),
(-131,-232,o),
(-105,-232,cs)
);
}
);
width = 270;
}
);
metricLeft = H;
metricRight = H;
unicode = 74;
},
{
glyphname = K;
lastChange = "2025-02-24 19:13:26 +0000";
layers = (
{
anchors = (
{
name = bottom;
pos = (247,0);
},
{
name = top;
pos = (457,616);
}
);
background = {
shapes = (
{
closed = 0;
nodes = (
(429,91,l),
(429,55,o),
(423,41,o),
(402,31,cs),
(391,26,o),
(373,25,o),
(346,18,c),
(346,0,l),
(591,0,l),
(591,18,l),
(545,31,o),
(522,33,o),
(513,51,cs),
(509,60,o),
(507,73,o),
(507,91,c)
);
},
{
closed = 0;
nodes = (
(451,525,l),
(451,561,o),
(457,575,o),
(478,585,cs),
(489,590,o),
(507,591,o),
(534,598,c),
(534,616,l),
(289,616,l),
(289,598,l),
(335,585,o),
(358,583,o),
(367,565,cs),
(371,556,o),
(373,543,o),
(373,525,cs)
);
}
);
};
color = 2;
layerId = m003;
shapes = (
{
closed = 1;
nodes = (
(-25,0,l),
(227,0,l),
(232,18,l),
(199,27,o),
(180,29,o),
(170,36,cs),
(161,44,o),
(156,58,o),
(165,91,cs),
(181,156,o),
(254,424,o),
(281,525,cs),
(289,556,o),
(300,572,o),
(315,581,cs),
(331,590,o),
(353,594,o),
(386,598,c),
(391,616,l),
(139,616,l),
(133,592,l),
(181,585,o),
(204,583,o),
(208,565,cs),
(209,556,o),
(208,543,o),
(203,525,cs),
(167,382,o),
(128,234,o),
(88,91,cs),
(81,66,o),
(73,52,o),
(61,44,cs),
(44,33,o),
(20,33,o),
(-18,25,c)
);
},
{
closed = 1;
nodes = (
(508,503,l),
(554,540,o),
(608,574,o),
(638,586,cs),
(655,592,o),
(686,597,o),
(692,598,c),
(697,616,l),
(463,616,l),
(458,598,l),
(481,593,o),
(501,580,o),
(495,557,cs),
(491,543,o),
(477,526,o),
(455,505,c),
(166,267,l),
(181,240,l)
);
},
{
closed = 1;
nodes = (
(592,18,l),
(533,34,o),
(506,48,o),
(469,99,c),
(305,362,l),
(230,301,l),
(280,217,o),
(370,72,o),
(389,40,cs),
(410,8,o),
(433,-4,o),
(476,-3,cs),
(587,0,l)
);
}
);
width = 630;
}
);
metricLeft = H;
unicode = 75;
},
{
glyphname = L;
lastChange = "2025-02-24 19:13:26 +0000";
layers = (
{
anchors = (
{
name = bottom;
pos = (233,0);
},
{
name = center;
pos = (338,308);
},
{
name = top;
pos = (443,616);
},
{
name = topright;
pos = (727,616);
}
);
color = 2;
layerId = m003;
shapes = (
{
closed = 1;
nodes = (
(-28,-3,l),
(63,-1,o),
(143,0,o),
(223,0,c),
(233,41,l),
(173,43,o),
(156,43,o),
(172,105,cs),
(204,234,o),
(225,318,o),
(281,517,cs),
(291,553,o),
(297,567,o),
(320,577,cs),
(332,582,o),
(351,585,o),
(382,588,c),
(389,616,l),
(139,616,l),
(133,592,l),
(166,587,o),
(188,585,o),
(199,576,cs),
(208,568,o),
(208,554,o),
(201,525,cs),
(166,382,o),
(126,234,o),
(85,91,cs),
(77,63,o),
(70,49,o),
(57,40,cs),
(42,30,o),
(20,29,o),
(-21,23,c)
);
},
{
closed = 1;
nodes = (
(285,2,o),
(396,1,o),
(464,-3,c),
(529,102,o),
(578,177,o),
(578,177,c),
(555,189,l),
(489,98,o),
(396,47,o),
(323,45,c),
(279,44,o),
(254,41,o),
(233,41,c),
(223,0,l)
);
}
);
width = 576;
}
);
metricLeft = H;
metricRight = H;
unicode = 76;
},
{
glyphname = M;
lastChange = "2025-02-24 19:13:26 +0000";
layers = (
{
anchors = (
{
name = bottom;
pos = (366,0);
},
{
name = top;
pos = (576,616);
}
);
backgroundImage = {
imagePath = "../../Desktop/Bildschirmfoto 2024-12-24 um 15.40.08.png";
pos = (787,-1015);
scale = (-1.3983,1.4017);
slant = (-2.0049,0);
};
color = 1;
layerId = m003;
shapes = (
{
closed = 1;
nodes = (
(796,586,l),
(775,616,l),
(387,107,l),
(407,117,l),
(316,616,l),
(139,616,l),
(132,591,l),
(179,587,ls),
(207,584,o),
(232,565,o),
(237,540,cs),
(339,-16,l)
);
},
{
closed = 1;
nodes = (
(191,0,l),
(198,25,l),
(164,33,o),
(117,40,o),
(110,52,cs),
(104,63,o),
(103,79,o),
(111,105,cs),
(253,561,l),
(220,591,l),
(71,105,ls),
(63,78,o),
(53,60,o),
(42,51,cs),
(27,39,o),
(-11,33,o),
(-36,25,c),
(-43,0,l)
);
},
{
closed = 1;
nodes = (
(785,0,l),
(792,25,l),
(754,33,o),
(731,41,o),
(725,51,cs),
(714,65,o),
(720,82,o),
(726,104,cs),
(754,216,o),
(801,401,o),
(834,529,cs),
(839,544,o),
(845,556,o),
(858,566,cs),
(872,578,o),
(892,586,o),
(924,591,c),
(931,616,l),
(775,616,l),
(646,104,ls),
(639,80,o),
(635,63,o),
(619,50,cs),
(598,34,o),
(559,27,o),
(540,25,c),
(533,0,l)
);
}
);
width = 864;
}
);
metricLeft = H;
metricRight = H;
unicode = 77;
},
{
glyphname = N;
lastChange = "2025-02-24 19:13:26 +0000";
layers = (
{
anchors = (
{
name = bottom;
pos = (301,0);
},
{
name = top;
pos = (511,616);
}
);
color = 1;
layerId = m003;
shapes = (
{
closed = 1;
nodes = (
(602,-11,l),
(646,157,o),
(722,443,o),
(741,512,c),
(701,512,l),
(590,97,l),
(613,106,l),
(270,616,l),
(139,616,l),
(132,591,l),
(154,587,o),
(173,579,o),
(184,566,cs),
(198,548,o),
(223,514,o),
(223,514,c),
(576,-11,l)
);
},
{
closed = 1;
nodes = (
(209,0,l),
(216,25,l),
(180,28,o),
(141,35,o),
(132,52,cs),
(123,68,o),
(126,78,o),
(133,104,c),
(93,104,l),
(86,77,o),
(81,65,o),
(64,51,cs),
(42,34,o),
(5,33,o),
(-18,25,c),
(-25,0,l)
);
},
{
closed = 1;
nodes = (
(133,104,l),
(255,561,l),
(222,591,l),
(93,104,l)
);
},
{
closed = 1;
nodes = (
(741,512,l),
(749,542,o),
(758,558,o),
(773,567,cs),
(787,577,o),
(808,581,o),
(834,588,c),
(841,616,l),
(625,616,l),
(618,591,l),
(662,584,o),
(688,582,o),
(700,568,cs),
(708,557,o),
(709,541,o),
(701,512,c)
);
}
);
width = 738;
}
);
metricLeft = H;
metricRight = H;
unicode = 78;
},
{
glyphname = O;
lastChange = "2025-02-24 19:13:26 +0000";
layers = (
{
anchors = (
{
name = bottom;
pos = (299,0);
},
{
name = center;
pos = (404,308);
},
{
name = ogonek;
pos = (599,10);
},
{
name = top;
pos = (509,616);
},
{
name = topleft;
pos = (158,616);
},
{
name = topright;
pos = (860,616);
}
);
background = {
shapes = (
{
closed = 1;
nodes = (
(566,111,o),
(621,209,o),
(624,323,c,{
"Letterink-NibData" = {
AngleInDegrees = "359.99999";
};
}),
(621,395,o),
(610,434,o),
(580,483,cs,{
"Letterink-NibData" = {
AngleInDegrees = "0";
};
}),
(519,582,o),
(433,633,o),
(329,633,cs),
(280,633,o),
(232,621,o),
(191,597,cs,{
"Letterink-NibData" = {
AngleInDegrees = "359.99999";
};
}),
(121,557,ls,{
"Letterink-NibData" = {
AngleInDegrees = "359.99999";
};
}),
(95,542,o),
(43,495,o),
(26,471,cs,{
"Letterink-NibData" = {
AngleInDegrees = "360";
};
}),
(-14,415,o),
(-32,359,o),
(-32,290,cs),
(-32,121,o),
(103,-21,o),
(263,-21,cs),
(312,-21,o),
(364,-7,o),
(408,19,cs,{
"Letterink-NibData" = {
AngleInDegrees = "360";
};
}),
(477,59,ls,{
"Letterink-NibData" = {
AngleInDegrees = "0";
};
})
);
},
{
closed = 1;
nodes = (
(402,32,o),
(370,26,o),
(329,26,cs),
(255,26,o),
(172,61,o),
(127,111,cs,{
"Letterink-NibData" = {
AngleInDegrees = "360";
};
}),
(115,123,o),
(102,141,o),
(82,168,c,{
"Letterink-NibData" = {
AngleInDegrees = "359.99999";
};
}),
(51,236,o),
(41,271,o),
(41,323,cs),
(41,425,o),
(79,501,o),
(163,566,c,{
"Letterink-NibData" = {
AngleInDegrees = "0";
};
}),
(205,583,o),
(221,586,o),
(263,586,cs),
(368,586,o),
(449,538,o),
(513,438,c,{
"Letterink-NibData" = {
AngleInDegrees = "359.99999";
};
}),
(540,389,o),
(551,347,o),
(551,289,cs,{
"Letterink-NibData" = {
AngleInDegrees = "359.99999";
};
}),
(549,192,o),
(506,102,o),
(435,47,c,{
"Letterink-NibData" = {
AngleInDegrees = "0";
};
})
);
}
);
};
color = 4;
layerId = m003;
shapes = (
{
closed = 1;
nodes = (
(486,-11,o),
(653,121,o),
(703,308,cs),
(752,494,o),
(656,626,o),
(461,626,cs),
(278,626,o),
(104,494,o),
(55,308,cs),
(5,121,o),
(108,-11,o),
(291,-11,cs)
);
},
{
closed = 1;
nodes = (
(195,474,o),
(335,585,o),
(452,585,cs),
(601,585,o),
(649,466,o),
(604,298,cs),
(563,141,o),
(428,30,o),
(299,30,cs),
(163,30,o),
(108,149,o),
(153,318,cs)
);
}
);
width = 702;
}
);
note = O;
unicode = 79;
},
{
glyphname = P;
lastChange = "2025-02-24 19:13:26 +0000";
layers = (
{
anchors = (
{
name = bottom;
pos = (204,0);
},
{
name = top;
pos = (414,616);
}
);
background = {
anchors = (
{
name = bottom;
pos = (255,0);
},
{
name = center;
pos = (113,154);
},
{
name = top;
pos = (255,616);
}
);
shapes = (
{
closed = 1;
nodes = (
(-5,0,l),
(278,0,l),
(278,40,l),
(233,40,o),
(198,38,o),
(179,54,cs),
(170,62,o),
(165,73,o),
(165,91,cs),
(163,307,o),
(162,377,o),
(166,574,c),
(183,576,o),
(235,576,o),
(258,576,c),
(258,616,l),
(-5,616,l),
(-5,591,l),
(29,581,o),
(53,582,o),
(67,572,cs),
(77,565,o),
(82,552,o),
(82,525,cs),
(83,341,o),
(84,253,o),
(84,312,cs),
(84,373,o),
(83,282,o),
(82,91,cs),
(82,65,o),
(76,51,o),
(67,43,cs),
(51,29,o),
(25,31,o),
(-5,25,c)
);
},
{
closed = 1;
nodes = (
(152,318,o),
(164,318,o),
(192,318,cs),
(348,318,o),
(451,378,o),
(451,481,cs),
(451,560,o),
(371,616,o),
(258,616,c),
(258,576,l),
(319,576,o),
(362,529,o),
(362,462,cs),
(362,387,o),
(293,348,o),
(185,348,cs),
(125,348,l),
(126,318,l)
);
}
);
};
color = 2;
layerId = m003;
shapes = (
{
closed = 1;
nodes = (
(277,271,o),
(287,271,o),
(297,271,cs),
(426,271,o),
(532,337,o),
(561,448,cs),
(588,552,o),
(530,620,o),
(418,618,c),
(389,584,l),
(463,584,o),
(496,528,o),
(472,436,cs),
(448,346,o),
(371,295,o),
(272,295,c),
(266,272,l)
);
},
{
closed = 1;
nodes = (
(262,0,l),
(269,25,l),
(220,36,o),
(200,39,o),
(192,51,cs),
(184,61,o),
(186,78,o),
(194,111,cs),
(212,188,o),
(262,379,o),
(320,583,c),
(389,584,l),
(418,618,l),
(378,617,o),
(317,616,o),
(285,616,c),
(246,616,o),
(181,617,o),
(139,618,c),
(130,587,l),
(173,580,o),
(202,576,o),
(213,556,cs),
(221,545,o),
(223,531,o),
(216,507,cs),
(181,369,o),
(145,235,o),
(108,101,cs),
(101,75,o),
(93,60,o),
(81,49,cs),
(66,35,o),
(23,30,o),
(-1,25,c),
(-8,0,l)
);
}
);
width = 522;
}
);
metricLeft = H;
metricRight = O;
unicode = 80;
},
{
glyphname = Q;
lastChange = "2025-02-24 19:13:26 +0000";
layers = (
{
anchors = (
{
name = bottom;
pos = (299,0);
},
{
name = top;
pos = (509,616);
}
);
background = {
shapes = (
{
closed = 1;
nodes = (
(487,-11,o),
(622,121,o),
(622,308,cs),
(622,494,o),
(487,626,o),
(296,626,cs),
(107,626,o),
(-26,494,o),
(-26,308,cs),
(-26,121,o),
(107,-11,o),
(296,-11,cs)
);
},
{
closed = 1;
nodes = (
(70,471,o),
(157,585,o),
(279,585,cs),
(424,585,o),
(526,463,o),
(526,298,cs),
(526,144,o),
(438,30,o),
(313,30,cs),
(171,30,o),
(70,152,o),
(70,318,cs)
);
},
{
closed = 1;
nodes = (
(487,-11,o),
(622,121,o),
(622,308,cs),
(622,494,o),
(487,626,o),
(296,626,cs),
(107,626,o),
(-26,494,o),
(-26,308,cs),
(-26,121,o),
(107,-11,o),
(296,-11,cs)
);
},
{
closed = 1;
nodes = (
(70,471,o),
(157,585,o),
(279,585,cs),
(424,585,o),
(526,463,o),
(526,298,cs),
(526,144,o),
(438,30,o),
(313,30,cs),
(171,30,o),
(70,152,o),
(70,318,cs)
);
}
);
};
backgroundImage = {
imagePath = "../../Desktop/Bildschirmfoto 2024-12-24 um 15.25.09.png";
pos = (885,-1126);
scale = (-1.4,1.4);
slant = (2,0);
};
color = 4;
layerId = m003;
shapes = (
{
closed = 1;
nodes = (
(485,-11,o),
(653,121,o),
(703,308,cs),
(752,494,o),
(655,626,o),
(467,626,cs),
(275,626,o),
(104,494,o),
(55,308,cs),
(5,121,o),
(105,-11,o),
(297,-11,cs)
);
},
{
closed = 1;
nodes = (
(195,474,o),
(330,584,o),
(452,584,cs),
(597,584,o),
(649,466,o),
(604,298,cs),
(563,141,o),
(427,30,o),
(305,30,cs),
(160,30,o),
(108,149,o),
(153,318,cs)
);
},
{
closed = 1;
nodes = (
(487,-232,o),
(670,-232,cs),
(796,-232,o),
(922,-202,o),
(1010,-153,c),
(1003,-133,l),
(921,-163,o),
(829,-179,o),
(741,-179,cs),
(575,-179,o),
(430,-98,o),
(385,29,c),
(253,11,l),
(311,-144,o)
);
}
);
width = 702;
}
);
metricLeft = O;
metricWidth = O;
unicode = 81;
},
{
glyphname = R;
lastChange = "2025-02-24 19:13:26 +0000";
layers = (
{
anchors = (
{
name = bottom;
pos = (246,0);
},
{
name = top;
pos = (456,616);
}
);
background = {
shapes = (
{
closed = 1;
nodes = (
(-24,0,l),
(259,0,l),
(259,40,l),
(214,40,o),
(179,38,o),
(160,54,cs),
(151,62,o),
(146,73,o),
(146,91,cs),
(144,307,o),
(143,377,o),
(147,574,c),
(164,576,o),
(216,576,o),
(239,576,c),
(239,616,l),
(-24,616,l),
(-24,591,l),
(10,581,o),
(34,582,o),
(48,572,cs),
(58,565,o),
(63,552,o),
(63,525,cs),
(64,341,o),
(65,253,o),
(65,312,cs),
(65,373,o),
(64,282,o),
(63,91,cs),
(63,65,o),
(57,51,o),
(48,43,cs),
(32,29,o),
(6,31,o),
(-24,25,c)
);
}
);
};
color = 2;
layerId = m003;
shapes = (
{
closed = 1;
nodes = (
(375,282,o),
(511,354,o),
(539,458,cs),
(563,550,o),
(499,620,o),
(391,618,c),
(360,576,l),
(430,576,o),
(470,526,o),
(450,446,cs),
(428,362,o),
(336,322,o),
(220,322,c),
(210,282,l)
);
},
{
closed = 1;
nodes = (
(243,0,l),
(250,27,l),
(212,31,o),
(176,41,o),
(169,53,cs),
(162,63,o),
(164,79,o),
(171,106,cs),
(242,374,o),
(263,454,o),
(299,574,c),
(360,576,l),
(391,618,l),
(341,617,o),
(313,616,o),
(264,616,c),
(224,615,o),
(184,617,o),
(139,618,c),
(132,592,l),
(164,585,o),
(194,579,o),
(202,567,cs),
(207,556,o),
(205,538,o),
(198,512,cs),
(164,376,o),
(127,238,o),
(90,104,cs),
(80,69,o),
(72,53,o),
(59,44,cs),
(44,34,o),
(23,32,o),
(-20,25,c),
(-27,0,l)
);
},
{
closed = 1;
nodes = (
(590,18,l),
(520,26,o),
(432,156,o),
(385,337,c),
(300,305,l),
(336,123,o),
(410,-5,o),
(482,-3,cs),
(585,0,l)
);
}
);
width = 612;
}
);
metricLeft = H;
unicode = 82;
},
{
glyphname = S;
lastChange = "2025-02-24 19:13:26 +0000";
layers = (
{
anchors = (
{
name = bottom;
pos = (164,0);
},
{
name = top;
pos = (374,616);
}
);
color = 4;
layerId = m003;
shapes = (
{
closed = 1;
nodes = (
(269,-9,o),
(378,69,o),
(407,176,cs),
(451,341,o),
(144,354,o),
(184,492,cs),
(199,545,o),
(264,581,o),
(332,581,cs),
(407,581,o),
(427,517,o),
(405,453,c),
(444,453,l),
(457,508,o),
(476,576,o),
(485,593,c),
(439,611,o),
(375,624,o),
(334,624,cs),
(221,624,o),
(128,550,o),
(101,446,cs),
(54,272,o),
(360,279,o),
(322,136,cs),
(306,75,o),
(224,33,o),
(143,35,cs),
(69,37,o),
(48,104,o),
(74,197,c),
(33,197,l),
(29,171,o),
(13,104,o),
(-7,36,c),
(51,10,o),
(113,-9,o),
(142,-9,cs)
);
}
);
width = 450;
}
);
metricLeft = O;
metricRight = O;
unicode = 83;
},
{
glyphname = T;
lastChange = "2025-02-24 19:13:26 +0000";
layers = (
{
anchors = (
{
name = bottom;
pos = (245,0);
},
{
name = center;
pos = (350,308);
},
{
name = top;
pos = (455,616);
}
);
background = {
shapes = (
{
closed = 1;
nodes = (
(161,0,l),
(406,0,l),
(406,18,l),
(360,31,o),
(337,33,o),
(328,52,cs),
(324,60,o),
(323,73,o),
(323,91,cs),
(322,164,o),
(322,237,o),
(321,310,cs),
(320,382,o),
(322,453,o),
(323,525,cs),
(323,561,o),
(329,575,o),
(350,585,cs),
(361,590,o),
(379,591,o),
(406,598,c),
(406,616,l),
(161,616,l),
(161,598,l),
(207,585,o),
(230,583,o),
(239,565,cs),
(243,556,o),
(245,543,o),
(245,525,cs),
(246,454,o),
(247,383,o),
(247,312,cs),
(247,238,o),
(246,165,o),
(245,91,cs),
(245,55,o),
(238,42,o),
(217,32,cs),
(206,27,o),
(188,25,o),
(161,18,c)
);
}
);
};
color = 4;
layerId = m003;
shapes = (
{
closed = 1;
nodes = (
(432,0,l),
(439,28,l),
(368,42,o),
(326,46,o),
(337,100,cs),
(375,262,o),
(420,428,o),
(468,590,c),
(437,561,l),
(501,561,o),
(570,561,o),
(599,561,cs),
(635,561,o),
(681,559,o),
(656,447,c),
(696,451,l),
(712,515,o),
(724,579,o),
(729,643,c),
(717,643,l),
(656,616,l),
(498,613,o),
(345,613,o),
(204,616,c),
(166,653,l),
(157,648,l),
(126,581,o),
(103,515,o),
(83,448,c),
(122,446,l),
(158,561,o),
(193,561,o),
(257,561,cs),
(407,561,l),
(384,590,l),
(352,462,o),
(268,146,o),
(253,100,cs),
(239,54,o),
(194,41,o),
(115,28,c),
(108,0,l)
);
}
);
width = 612;
}
);
metricLeft = H;
metricRight = H;
unicode = 84;
},
{
glyphname = U;
lastChange = "2025-02-24 19:13:26 +0000";
layers = (
{
anchors = (
{
name = bottom;
pos = (264,0);
},
{
name = ogonek;
pos = (535,10);
},
{
name = top;
pos = (474,616);
},
{
name = topright;
pos = (789,616);
}
);
color = 1;
layerId = m003;
shapes = (
{
closed = 1;
nodes = (
(450,-11,o),
(570,78,o),
(605,204,cs),
(643,339,o),
(665,431,o),
(688,514,cs),
(705,578,o),
(732,588,o),
(780,588,c),
(787,616,l),
(589,616,l),
(583,592,l),
(630,582,o),
(655,553,o),
(637,481,cs),
(613,387,o),
(592,303,o),
(564,208,cs),
(537,111,o),
(432,42,o),
(326,42,cs),
(228,42,o),
(174,102,o),
(180,188,cs),
(180,197,o),
(213,327,o),
(261,503,cs),
(279,570,o),
(317,588,o),
(367,592,c),
(373,616,l),
(139,616,l),
(130,585,l),
(159,579,o),
(198,567,o),
(183,511,cs),
(176,486,o),
(145,367,o),
(101,202,cs),
(68,77,o),
(157,-11,o),
(303,-11,cs)
);
}
);
width = 666;
}
);
metricLeft = H;
metricRight = H;
unicode = 85;
},
{
glyphname = V;
lastChange = "2025-02-24 19:13:26 +0000";
layers = (
{
anchors = (
{
name = bottom;
pos = (291,0);
},
{
name = top;
pos = (501,616);
}
);
color = 4;
layerId = m003;
shapes = (
{
closed = 1;
nodes = (
(319,-24,l),
(435,153,o),
(644,444,o),
(687,505,cs),
(730,566,o),
(769,579,o),
(834,588,c),
(841,616,l),
(591,616,l),
(585,593,l),
(633,586,o),
(665,573,o),
(657,543,cs),
(651,521,o),
(630,488,o),
(605,452,cs),
(342,70,l),
(377,93,l),
(354,227,o),
(324,480,o),
(321,496,cs),
(318,512,o),
(317,528,o),
(321,543,cs),
(325,558,o),
(331,582,o),
(420,591,c),
(427,616,l),
(139,616,l),
(132,588,l),
(177,580,o),
(221,571,o),
(233,489,cs),
(306,-24,l)
);
}
);
width = 720;
}
);
metricLeft = H;
metricRight = H;
unicode = 86;
},
{
glyphname = W;
lastChange = "2025-02-24 19:13:26 +0000";
layers = (
{
anchors = (
{
name = bottom;
pos = (408,0);
},
{
name = top;
pos = (618,616);
}
);
color = 4;
layerId = m003;
shapes = (
{
closed = 1;
nodes = (
(586,487,l),
(307,75,l),
(345,98,l),
(301,496,ls),
(294,562,o),
(279,582,o),
(366,591,c),
(373,616,l),
(139,616,l),
(132,588,l),
(159,579,o),
(205,572,o),
(215,489,cs),
(276,-24,l),
(289,-24,l),
(367,108,o),
(523,321,o),
(596,438,c)
);
},
{
closed = 1;
nodes = (
(607,-24,l),
(721,153,o),
(919,444,o),
(958,505,cs),
(997,566,o),
(999,576,o),
(1068,588,c),
(1075,616,l),
(877,616,l),
(870,591,l),
(949,570,o),
(935,533,o),
(880,452,cs),
(625,70,l),
(668,99,l),
(655,233,o),
(637,480,o),
(636,496,cs),
(632,572,o),
(636,582,o),
(706,591,c),
(713,616,l),
(479,616,l),
(472,591,l),
(516,584,o),
(545,572,o),
(552,489,cs),
(594,-24,l)
);
}
);
width = 954;
}
);
metricLeft = H;
metricRight = H;
unicode = 87;
},
{
glyphname = X;
lastChange = "2025-02-24 19:13:26 +0000";
layers = (
{
anchors = (
{
name = bottom;
pos = (258,0);
},
{
name = top;
pos = (468,616);
}
);
color = 4;
guides = (
{
angle = 53;
pos = (534,661);
}
);
layerId = m003;
shapes = (
{
closed = 1;
nodes = (
(569,0,l),
(576,28,l),
(537,33,o),
(531,26,o),
(492,114,cs),
(388,351,o),
(392,351,o),
(315,512,cs),
(302,541,o),
(298,555,o),
(302,566,cs),
(305,581,o),
(321,586,o),
(374,591,c),
(381,616,l),
(139,616,l),
(132,588,l),
(166,588,o),
(181,587,o),
(221,494,cs),
(312,286,o),
(318,286,o),
(395,105,cs),
(408,76,o),
(413,58,o),
(411,47,cs),
(406,30,o),
(382,29,o),
(318,25,c),
(311,0,l)
);
},
{
closed = 1;
nodes = (
(173,0,l),
(180,25,l),
(148,28,o),
(127,32,o),
(133,54,cs),
(136,67,o),
(146,80,o),
(178,112,cs),
(368,308,l),
(341,333,l),
(109,101,ls),
(25,17,o),
(14,30,o),
(-18,28,c),
(-25,0,l)
);
},
{
closed = 1;
nodes = (
(579,504,ls),
(660,582,o),
(686,585,o),
(726,588,c),
(733,616,l),
(535,616,l),
(528,591,l),
(555,588,o),
(571,586,o),
(567,567,cs),
(562,550,o),
(536,517,o),
(480,463,cs),
(352,340,l),
(381,315,l)
);
}
);
width = 648;
}
);
metricLeft = H;
metricRight = H;
unicode = 88;
},
{
glyphname = Y;
lastChange = "2025-02-24 19:13:26 +0000";
layers = (
{
anchors = (
{
name = bottom;
pos = (210,0);
},
{
name = top;
pos = (420,616);
},
{
name = topleft;
pos = (158,616);
}
);
color = 4;
layerId = m003;
shapes = (
{
closed = 1;
nodes = (
(404,0,l),
(411,28,l),
(342,33,o),
(296,30,o),
(312,93,cs),
(372,318,l),
(342,257,l),
(556,509,ls),
(623,588,o),
(659,588,o),
(672,588,c),
(679,616,l),
(481,616,l),
(474,591,l),
(543,581,o),
(554,565,o),
(507,505,c),
(338,306,l),
(352,307,l),
(290,525,l),
(277,586,o),
(278,585,o),
(348,591,c),
(355,616,l),
(139,616,l),
(132,588,l),
(167,588,o),
(185,581,o),
(191,556,cs),
(277,243,l),
(285,293,l),
(231,93,ls),
(217,38,o),
(153,33,o),
(105,28,c),
(98,0,l)
);
}
);
width = 558;
}
);
metricLeft = H;
metricRight = H;
unicode = 89;
},
{
glyphname = Z;
lastChange = "2025-02-24 19:13:26 +0000";
layers = (
{
anchors = (
{
name = bottom;
pos = (214,0);
},
{
name = center;
pos = (319,308);
},
{
name = top;
pos = (424,616);
}
);
color = 4;
layerId = m003;
shapes = (
{
closed = 1;
nodes = (
(74,0,o),
(269,1,o),
(298,1,cs),
(328,1,o),
(398,1,o),
(439,-2,c),
(480,57,o),
(525,143,o),
(552,210,c),
(518,210,l),
(493,154,o),
(421,43,o),
(272,41,cs),
(59,38,l),
(61,24,l),
(627,594,l),
(622,621,l),
(544,616,o),
(389,615,o),
(341,615,cs),
(283,615,o),
(182,611,o),
(143,617,c),
(117,554,o),
(94,490,o),
(77,427,c),
(105,427,l),
(129,479,o),
(143,576,o),
(278,576,cs),
(353,576,o),
(469,574,o),
(526,572,c),
(523,596,l),
(-58,12,l),
(-53,0,l)
);
}
);
width = 558;
}
);
metricLeft = H;
metricRight = H;
unicode = 90;
},
{
glyphname = a;
lastChange = "2025-02-25 18:58:18 +0000";
layers = (
{
anchors = (
{
name = bottom;
pos = (164,0);
},
{
name = ogonek;
pos = (346,10);
},
{
name = top;
pos = (258,402);
}
);
background = {
shapes = (
{
closed = 1;
nodes = (
(125,-15,o),
(227,71,o),
(288,191,c),
(282,242,l),
(228,132,o),
(146,45,o),
(103,45,cs),
(80,45,o),
(78,92,o),
(99,167,cs),
(133,274,o),
(197,347,o),
(258,347,cs),
(273,347,o),
(300,331,o),
(320,318,c),
(351,367,l),
(331,377,o),
(301,379,o),
(283,379,cs),
(170,379,o),
(58,280,o),
(16,140,cs),
(-10,51,o),
(5,-15,o),
(60,-15,cs)
);
},
{
closed = 1;
nodes = (
(329,-14,o),
(378,27,o),
(431,95,c),
(407,114,l),
(368,64,o),
(334,45,o),
(326,45,cs),
(310,45,o),
(311,86,o),
(327,156,cs),
(345,238,o),
(375,341,o),
(409,415,c),
(384,409,o),
(347,406,o),
(323,407,c),
(278,266,o),
(271,228,o),
(265,201,cs),
(262,189,o),
(260,180,o),
(256,163,cs),
(227,71,o),
(233,-14,o),
(278,-14,cs)
);
}
);
};
layerId = m003;
shapes = (
{
closed = 1;
nodes = (
(125,-15,o),
(227,71,o),
(288,191,c),
(282,242,l),
(228,132,o),
(146,45,o),
(103,45,cs),
(80,45,o),
(80,93,o),
(99,167,cs),
(127,274,o),
(195,370,o),
(256,370,cs),
(276,370,o),
(298,359,o),
(318,341,c),
(349,390,l),
(329,400,o),
(299,402,o),
(281,402,cs),
(168,402,o),
(57,280,o),
(19,140,cs),
(-5,51,o),
(5,-15,o),
(60,-15,cs)
);
},
{
closed = 1;
nodes = (
(329,-14,o),
(378,27,o),
(431,95,c),
(407,114,l),
(368,64,o),
(334,45,o),
(326,45,cs),
(310,45,o),
(311,86,o),
(327,156,cs),
(345,238,o),
(390,348,o),
(427,422,c),
(402,416,o),
(365,413,o),
(341,414,c),
(282,273,o),
(271,228,o),
(265,201,cs),
(248,135,o),
(211,-14,o),
(278,-14,cs)
);
}
);
width = 432;
},
{
associatedMasterId = m003;
layerId = "0DE6FB79-B0B6-414C-BAFE-4B31CAFD69E7";
name = "7. Nov. 24, 00:06";
shapes = (
{
closed = 1;
nodes = (
(386,427,l),
(364,443,o),
(341,460,o),
(326,460,cs),
(253,460,o),
(163,346,o),
(113,184,cs),
(95,125,o),
(89,76,o),
(108,76,cs),
(131,76,o),
(206,136,o),
(276,208,c),
(293,190,l),
(187,77,o),
(81,-10,o),
(46,-10,cs),
(-3,-10,o),
(-12,61,o),
(16,152,cs),
(81,363,o),
(222,508,o),
(354,508,cs),
(374,508,o),
(402,493,o),
(424,476,c)
);
},
{
closed = 1;
nodes = (
(457,500,l),
(414,395,o),
(364,261,o),
(334,177,cs),
(307,105,o),
(302,54,o),
(322,54,cs),
(345,54,o),
(386,119,o),
(421,210,c),
(451,210,l),
(402,82,o),
(324,-8,o),
(263,-8,cs),
(220,-8,o),
(211,51,o),
(242,135,cs),
(211,52,o),
(288,250,o),
(382,500,c)
);
}
);
width = 467;
},
{
associatedMasterId = m003;
background = {
shapes = (
{
closed = 1;
nodes = (
(200,83,o),
(113,-8,o),
(67,-8,cs),
(3,-8,o),
(-18,54,o),
(15,141,cs),
(38,202,o),
(65,270,o),
(82,315,cs),
(109,387,o),
(115,438,o),
(96,438,cs),
(72,438,o),
(29,373,o),
(-8,282,c),
(-38,282,l),
(15,414,o),
(95,508,o),
(155,508,cs),
(199,508,o),
(206,445,o),
(173,357,cs),
(136,259,o),
(109,190,o),
(109,192,cs),
(83,118,o),
(83,66,o),
(110,66,cs),
(145,66,o),
(215,145,o),
(277,257,c),
(277,212,l)
);
},
{
closed = 1;
nodes = (
(442,500,l),
(402,401,o),
(351,268,o),
(319,177,cs),
(292,105,o),
(287,54,o),
(307,54,cs),
(330,54,o),
(371,119,o),
(406,210,c),
(436,210,l),
(387,82,o),
(309,-8,o),
(248,-8,cs),
(205,-8,o),
(196,51,o),
(227,135,cs),
(196,52,o),
(273,250,o),
(367,500,c)
);
}
);
};
layerId = "90AB4BE1-A270-4CBB-8974-CA3C0A24FD98";
name = "8. Nov. 24, 10:52";
shapes = (
{
closed = 1;
nodes = (
(376,417,l),
(343,441,o),
(313,452,o),
(286,452,cs),
(209,452,o),
(152,362,o),
(103,205,cs),
(89,162,o),
(82,126,o),
(82,101,cs),
(82,79,o),
(101,56,o),
(112,56,cs),
(166,56,o),
(230,120,o),
(286,197,c),
(293,190,l),
(221,73,o),
(135,-10,o),
(86,-10,cs),
(16,-10,o),
(-13,57,o),
(16,152,cs),
(80,361,o),
(220,508,o),
(354,508,cs),
(372,508,o),
(401,495,o),
(424,476,c)
);
},
{
closed = 1;
nodes = (
(460,508,l),
(424,421,o),
(372,284,o),
(334,177,cs),
(307,105,o),
(302,54,o),
(322,54,cs),
(345,54,o),
(386,119,o),
(421,210,c),
(451,210,l),
(402,82,o),
(324,-8,o),
(263,-8,cs),
(220,-8,o),
(211,51,o),
(242,135,cs),
(211,52,o),
(288,250,o),
(382,500,c)
);
},
{
closed = 1;
nodes = (
(89,-10,o),
(183,73,o),
(293,190,c),
(276,208,l),
(195,125,o),
(126,66,o),
(109,66,cs),
(83,66,o),
(82,115,o),
(107,184,cs),
(166,346,o),
(257,460,o),
(326,460,cs),
(335,460,o),
(359,446,o),
(386,427,c),
(424,476,l),
(400,495,o),
(371,508,o),
(354,508,cs),
(232,508,o),
(91,361,o),
(15,152,cs),
(-19,57,o),
(2,-10,o),
(66,-10,cs)
);
}
);
width = 467;
}
);
unicode = 97;
},
{
glyphname = b;
lastChange = "2025-02-25 19:19:36 +0000";
layers = (
{
anchors = (
{
name = bottom;
pos = (168,0);
},
{
name = center;
pos = (179,510);
},
{
name = top;
pos = (262,402);
}
);
layerId = m003;
shapes = (
{
closed = 1;
nodes = (
(219,-15,o),
(331,91,o),
(372,241,cs),
(398,336,o),
(368,404,o),
(300,404,cs),
(229,404,o),
(151,373,o),
(111,330,c),
(114,285,l),
(145,324,o),
(206,352,o),
(262,352,cs),
(301,352,o),
(313,294,o),
(291,212,cs),
(263,101,o),
(197,23,o),
(132,23,cs),
(99,23,o),
(86,59,o),
(101,110,cs),
(152,303,o),
(218,526,o),
(260,647,c),
(109,640,o),
(31,635,o),
(71,635,c),
(67,606,l),
(124,609,o),
(160,600,o),
(155,583,c),
(154,571,o),
(149,547,o),
(143,525,cs),
(21,82,ls),
(5,25,o),
(38,-15,o),
(101,-15,cs)
);
}
);
width = 396;
}
);
metricLeft = l;
metricRight = o;
unicode = 98;
},
{
glyphname = c;
lastChange = "2025-02-25 16:38:33 +0000";
layers = (
{
anchors = (
{
name = bottom;
pos = (125,0);
},
{
name = top;
pos = (219,402);
}
);
background = {
shapes = (
{
closed = 1;
nodes = (
(153,-12,o),
(233,32,o),
(285,93,c),
(267,111,l),
(227,67,o),
(173,42,o),
(134,42,cs),
(82,42,o),
(73,115,o),
(118,225,cs),
(152,311,o),
(204,367,o),
(244,367,cs),
(265,367,o),
(271,345,o),
(257,307,cs),
(236,254,o),
(161,207,o),
(77,192,c),
(69,160,l),
(197,184,o),
(306,254,o),
(334,323,cs),
(353,375,o),
(326,412,o),
(270,412,cs),
(179,412,o),
(80,324,o),
(32,200,cs),
(-15,76,o),
(9,-12,o),
(91,-12,cs)
);
}
);
};
layerId = m003;
shapes = (
{
closed = 1;
nodes = (
(181,-14,o),
(258,30,o),
(303,93,c),
(280,114,l),
(247,73,o),
(195,44,o),
(155,44,cs),
(106,44,o),
(87,117,o),
(116,224,cs),
(143,320,o),
(191,387,o),
(230,387,cs),
(264,387,o),
(278,350,o),
(261,294,c),
(260,284,o),
(264,275,o),
(273,275,cs),
(306,275,o),
(331,293,o),
(338,316,cs),
(352,374,o),
(312,414,o),
(242,414,cs),
(152,414,o),
(69,325,o),
(35,201,cs),
(1,75,o),
(34,-14,o),
(119,-14,cs)
);
}
);
width = 342;
}
);
metricLeft = o;
metricRight = o;
unicode = 99;
},
{
glyphname = d;
lastChange = "2025-02-25 19:13:20 +0000";
layers = (
{
anchors = (
{
name = bottom;
pos = (160,0);
},
{
name = center;
pos = (388,510);
},
{
name = top;
pos = (253,402);
},
{
name = topright;
pos = (506,637);
}
);
background = {
shapes = (
{
closed = 1;
nodes = (
(312,-14,o),
(380,25,o),
(408,79,c),
(387,97,l),
(364,62,o),
(331,38,o),
(307,38,cs),
(294,38,o),
(291,64,o),
(302,105,cs),
(331,216,o),
(389,429,o),
(419,540,cs),
(426,565,o),
(442,616,o),
(459,660,c),
(426,644,o),
(337,633,o),
(256,633,c),
(252,604,l),
(316,607,o),
(355,597,o),
(350,580,c),
(350,564,o),
(344,541,o),
(340,523,cs),
(320,448,o),
(301,375,o),
(283,309,cs),
(249,177,o),
(223,79,o),
(223,72,cs),
(214,23,o),
(224,-14,o),
(248,-14,cs)
);
},
{
closed = 1;
nodes = (
(128,-15,o),
(231,71,o),
(293,191,c),
(289,242,l),
(232,132,o),
(148,45,o),
(105,45,cs),
(82,45,o),
(81,122,o),
(105,197,cs),
(139,304,o),
(204,377,o),
(265,377,cs),
(280,377,o),
(308,361,o),
(327,348,c),
(360,397,l),
(340,407,o),
(311,409,o),
(293,409,cs),
(180,409,o),
(65,310,o),
(21,170,cs),
(-7,81,o),
(8,-15,o),
(63,-15,cs)
);
}
);
};
layerId = m003;
shapes = (
{
closed = 1;
nodes = (
(328,-14,o),
(396,25,o),
(424,79,c),
(403,97,l),
(380,62,o),
(347,38,o),
(323,38,cs),
(310,38,o),
(307,64,o),
(318,105,cs),
(347,216,o),
(405,429,o),
(435,540,cs),
(442,565,o),
(458,616,o),
(470,645,c),
(442,644,o),
(353,633,o),
(282,633,c),
(278,604,l),
(332,607,o),
(371,597,o),
(366,580,c),
(366,564,o),
(360,541,o),
(356,523,cs),
(336,448,o),
(317,375,o),
(299,309,cs),
(265,177,o),
(239,79,o),
(239,72,cs),
(230,23,o),
(240,-14,o),
(264,-14,cs)
);
},
{
closed = 1;
nodes = (
(125,-15,o),
(227,71,o),
(288,191,c),
(282,242,l),
(228,132,o),
(146,45,o),
(103,45,cs),
(80,45,o),
(80,93,o),
(99,167,cs),
(127,274,o),
(205,370,o),
(266,370,cs),
(286,370,o),
(308,359,o),
(328,341,c),
(359,390,l),
(339,400,o),
(309,402,o),
(291,402,cs),
(178,402,o),
(57,280,o),
(19,140,cs),
(-5,51,o),
(5,-15,o),
(60,-15,cs)
);
}
);
width = 432;
},
{
associatedMasterId = m003;
layerId = "993377BE-703F-43F0-9103-9C55914F64D0";
name = "7. Nov. 24, 00:11";
shapes = (
{
closed = 1;
nodes = (
(98,-3,o),
(197,77,o),
(303,190,c),
(286,208,l),
(216,136,o),
(150,85,o),
(127,85,cs),
(108,85,o),
(107,127,o),
(125,186,cs),
(175,348,o),
(261,463,o),
(334,463,cs),
(348,463,o),
(373,451,o),
(396,435,c),
(434,484,l),
(412,501,o),
(382,513,o),
(362,513,cs),
(230,513,o),
(91,363,o),
(26,152,cs),
(-2,61,o),
(14,-3,o),
(63,-3,cs)
);
},
{
closed = 1;
nodes = (
(326,-6,o),
(410,88,o),
(463,220,c),
(433,220,l),
(402,142,o),
(359,87,o),
(330,87,cs),
(318,87,o),
(325,128,o),
(347,187,cs),
(369,248,o),
(481,573,o),
(531,701,c),
(456,701,l),
(255,145,l),
(222,57,o),
(225,-6,o),
(262,-6,cs)
);
},
{
closed = 1;
nodes = (
(336,648,l),
(391,651,o),
(437,635,o),
(447,610,c),
(456,701,l),
(342,702,l)
);
}
);
width = 463;
}
);
metricLeft = o;
metricWidth = a;
unicode = 100;
},
{
glyphname = e;
lastChange = "2025-02-25 18:43:20 +0000";
layers = (
{
anchors = (
{
name = bottom;
pos = (126,0);
},
{
name = ogonek;
pos = (274,10);
},
{
name = top;
pos = (220,402);
}
);
layerId = m003;
shapes = (
{
closed = 1;
nodes = (
(187,-14,o),
(262,30,o),
(307,93,c),
(283,114,l),
(249,69,o),
(199,44,o),
(160,44,cs),
(110,44,o),
(93,113,o),
(122,224,cs),
(144,309,o),
(184,365,o),
(223,365,cs),
(242,365,o),
(250,344,o),
(241,308,cs),
(228,255,o),
(163,209,o),
(80,194,c),
(77,157,l),
(204,181,o),
(302,253,o),
(321,322,cs),
(334,376,o),
(300,414,o),
(243,414,cs),
(151,414,o),
(69,325,o),
(35,201,cs),
(1,77,o),
(40,-14,o),
(124,-14,cs)
);
}
);
width = 342;
}
);
metricLeft = o;
unicode = 101;
},
{
glyphname = f;
lastChange = "2025-02-25 18:55:46 +0000";
layers = (
{
anchors = (
{
name = bottom;
pos = (84,0);
},
{
name = top;
pos = (278,637);
}
);
background = {
shapes = (
{
closed = 0;
nodes = (
(46,81,ls),
(35,33,o),
(6,-90,o),
(-36,-138,cs),
(-46,-150,o),
(-57,-157,o),
(-69,-157,cs),
(-88,-158,o),
(-85,-135,o),
(-104,-134,cs),
(-137,-134,o),
(-167,-163,o),
(-176,-205,cs),
(-180,-220,o),
(-165,-232,o),
(-139,-232,cs),
(-105,-232,o),
(-40,-190,o),
(-16,-164,cs),
(47,-96,o),
(109,29,o),
(134,148,cs)
);
}
);
};
layerId = m003;
shapes = (
{
closed = 1;
nodes = (
(-106,-234,o),
(-65,-202,o),
(-26,-164,cs),
(67,-78,o),
(107,68,o),
(124,148,cs),
(131,180,o),
(137,210,o),
(144,241,cs),
(161,323,o),
(177,402,o),
(198,486,cs),
(217,562,o),
(270,608,o),
(311,608,cs),
(355,608,o),
(378,581,o),
(366,542,cs),
(361,529,o),
(367,520,o),
(377,520,cs),
(408,520,o),
(437,538,o),
(443,561,cs),
(456,610,o),
(412,643,o),
(337,643,cs),
(236,643,o),
(132,559,o),
(104,434,cs),
(93,383,o),
(80,318,o),
(68,254,cs),
(52,175,o),
(38,95,o),
(24,32,cs),
(4,-55,o),
(-8,-89,o),
(-50,-137,cs),
(-60,-149,o),
(-72,-155,o),
(-81,-155,cs),
(-89,-155,o),
(-92,-151,o),
(-97,-144,cs),
(-101,-138,o),
(-105,-132,o),
(-116,-132,cs),
(-148,-132,o),
(-181,-163,o),
(-190,-205,cs),
(-193,-220,o),
(-178,-234,o),
(-151,-234,cs)
);
},
{
closed = 1;
nodes = (
(241,357,l),
(261,406,l),
(81,402,l),
(-6,382,l),
(-10,369,l)
);
}
);
width = 198;
}
);
metricWidth = l;
unicode = 102;
},
{
glyphname = g;
lastChange = "2025-02-24 19:24:02 +0000";
layers = (
{
anchors = (
{
name = bottom;
pos = (85,-230);
},
{
name = top;
pos = (278,402);
}
);
layerId = m003;
shapes = (
{
closed = 1;
nodes = (
(219,-173,o),
(318,-134,o),
(331,-79,cs),
(353,10,o),
(266,35,o),
(194,56,cs),
(150,69,o),
(115,80,o),
(119,101,cs),
(123,123,o),
(148,140,o),
(182,142,c),
(182,146,l),
(141,154,l),
(103,139,o),
(70,108,o),
(64,83,cs),
(48,14,o),
(119,-8,o),
(182,-28,cs),
(232,-44,o),
(274,-58,o),
(266,-90,cs),
(259,-118,o),
(206,-138,o),
(139,-138,cs),
(45,-138,o),
(10,-92,o),
(27,-23,cs),
(34,4,o),
(62,29,o),
(125,40,c),
(98,61,l),
(6,44,o),
(-49,-4,o),
(-60,-55,cs),
(-77,-123,o),
(-26,-173,o),
(92,-173,cs)
);
},
{
closed = 1;
nodes = (
(242,127,o),
(313,184,o),
(335,264,cs),
(360,351,o),
(321,414,o),
(242,414,cs),
(168,414,o),
(101,359,o),
(79,281,cs),
(55,192,o),
(91,127,o),
(165,127,cs)
);
},
{
closed = 1;
nodes = (
(139,154,o),
(134,208,o),
(161,288,cs),
(179,346,o),
(210,386,o),
(236,386,cs),
(267,386,o),
(275,332,o),
(253,253,cs),
(237,194,o),
(203,154,o),
(171,154,cs)
);
},
{
closed = 1;
nodes = (
(312,284,o),
(361,358,o),
(393,358,cs),
(396,358,o),
(400,357,o),
(404,356,cs),
(408,355,o),
(412,354,o),
(414,354,cs),
(425,354,o),
(440,368,o),
(447,386,cs),
(453,403,o),
(442,414,o),
(424,414,cs),
(380,414,o),
(313,332,o),
(263,220,c),
(277,178,l)
);
}
);
width = 414;
},
{
associatedMasterId = m003;
background = {
shapes = (
{
closed = 0;
nodes = (
(-67,-200,l),
(278,700,l)
);
},
{
closed = 0;
nodes = (
(8,-200,l),
(353,700,l)
);
},
{
closed = 0;
nodes = (
(148,-200,l),
(493,700,l)
);
},
{
closed = 0;
nodes = (
(223,-200,l),
(568,700,l)
);
},
{
closed = 0;
nodes = (
(-172,-200,l),
(173,700,l)
);
},
{
closed = 0;
nodes = (
(-142,-200,l),
(203,700,l)
);
},
{
closed = 0;
nodes = (
(298,-200,l),
(643,700,l)
);
},
{
closed = 0;
nodes = (
(328,-200,l),
(673,700,l)
);
}
);
};
layerId = "CD19AF2B-D444-4E18-A45E-DA9D7905EDAB";
name = "6. Nov. 24, 23:26";
shapes = (
{
closed = 1;
nodes = (
(199,-248,o),
(311,-189,o),
(339,-100,cs),
(353,-51,o),
(314,-3,o),
(245,16,cs),
(162,38,o),
(104,68,o),
(104,88,cs),
(104,101,o),
(126,128,o),
(157,154,c),
(123,163,l),
(88,130,o),
(60,97,o),
(55,83,cs),
(39,39,o),
(55,0,o),
(93,-11,cs),
(202,-41,o),
(271,-89,o),
(261,-126,cs),
(250,-165,o),
(192,-196,o),
(120,-201,cs),
(-1,-209,o),
(-69,-161,o),
(-44,-85,cs),
(-31,-48,o),
(30,-6,o),
(103,18,c),
(81,45,l),
(-35,9,o),
(-124,-51,o),
(-134,-101,cs),
(-153,-191,o),
(-69,-249,o),
(68,-241,cs)
);
},
{
closed = 1;
nodes = (
(229,132,o),
(298,192,o),
(328,279,cs),
(367,399,o),
(333,482,o),
(244,479,cs),
(166,476,o),
(88,411,o),
(57,323,cs),
(16,206,o),
(58,128,o),
(160,135,cs)
);
},
{
closed = 1;
nodes = (
(125,182,o),
(111,246,o),
(140,339,cs),
(157,394,o),
(188,434,o),
(216,435,cs),
(263,437,o),
(274,366,o),
(243,264,cs),
(228,215,o),
(199,182,o),
(171,184,cs)
);
},
{
closed = 1;
nodes = (
(337,397,o),
(345,432,o),
(367,434,cs),
(384,435,o),
(430,405,o),
(441,389,c),
(470,411,l),
(463,454,o),
(444,484,o),
(424,484,cs),
(378,484,o),
(323,451,o),
(292,404,c),
(310,377,l)
);
}
);
width = 414;
}
);
unicode = 103;
},
{
glyphname = h;
lastChange = "2025-02-25 19:20:29 +0000";
layers = (
{
anchors = (
{
name = bottom;
pos = (168,0);
},
{
name = center;
pos = (175,510);
},
{
name = top;
pos = (317,637);
}
);
layerId = m003;
shapes = (
{
closed = 1;
nodes = (
(273,-14,o),
(344,74,o),
(378,198,cs),
(413,325,o),
(393,414,o),
(331,414,cs),
(247,414,o),
(160,324,o),
(96,196,c),
(124,179,l),
(167,281,o),
(224,353,o),
(287,353,cs),
(321,353,o),
(327,279,o),
(300,174,cs),
(276,84,o),
(242,21,o),
(220,21,cs),
(203,21,o),
(196,43,o),
(204,75,cs),
(209,86,o),
(206,94,o),
(197,94,cs),
(173,94,o),
(151,80,o),
(145,61,cs),
(131,17,o),
(157,-14,o),
(207,-14,cs)
);
},
{
closed = 1;
nodes = (
(14,-11,o),
(51,-7,o),
(78,-7,c),
(120,174,o),
(180,402,o),
(222,543,cs),
(231,571,o),
(246,615,o),
(257,648,c),
(46,641,o),
(-32,636,o),
(69,636,c),
(67,607,l),
(124,610,o),
(159,601,o),
(153,584,c),
(152,567,o),
(148,543,o),
(143,526,cs),
(195,723,o),
(176,653,o),
(98,358,cs),
(58,206,o),
(13,51,o),
(-11,-16,c)
);
}
);
width = 414;
}
);
metricLeft = l;
metricRight = o;
unicode = 104;
},
{
glyphname = i;
lastChange = "2025-02-25 16:47:40 +0000";
layers = (
{
anchors = (
{
name = bottom;
pos = (83,0);
}
);
layerId = m003;
shapes = (
{
closed = 1;
nodes = (
(232,522,o),
(256,540,o),
(260,562,cs),
(268,592,o),
(241,615,o),
(207,615,cs),
(181,615,o),
(158,597,o),
(156,575,cs),
(150,546,o),
(172,522,o),
(204,522,cs)
);
},
{
closed = 1;
nodes = (
(53,80,ls),
(38,27,o),
(49,-14,o),
(81,-14,cs),
(129,-14,o),
(196,28,o),
(241,84,c),
(218,104,l),
(179,66,o),
(147,40,o),
(138,40,cs),
(127,40,o),
(124,63,o),
(136,100,cs),
(202,339,ls),
(218,397,o),
(205,414,o),
(173,414,cs),
(124,414,o),
(67,368,o),
(23,320,c),
(49,299,l),
(75,330,o),
(102,353,o),
(117,353,cs),
(124,353,o),
(123,325,o),
(110,281,cs)
);
}
);
width = 252;
}
);
unicode = 105;
},
{
glyphname = j;
lastChange = "2025-02-25 18:57:44 +0000";
layers = (
{
background = {
shapes = (
{
closed = 1;
nodes = (
(232,522,o),
(256,540,o),
(260,562,cs),
(268,592,o),
(241,615,o),
(207,615,cs),
(181,615,o),
(158,597,o),
(156,575,cs),
(150,546,o),
(172,522,o),
(204,522,cs)
);
},
{
closed = 1;
nodes = (
(52,80,ls),
(37,27,o),
(48,-14,o),
(80,-14,cs),
(128,-14,o),
(195,28,o),
(240,84,c),
(217,104,l),
(178,66,o),
(146,40,o),
(137,40,cs),
(126,40,o),
(123,63,o),
(135,100,cs),
(201,339,ls),
(217,397,o),
(204,414,o),
(172,414,cs),
(123,414,o),
(66,368,o),
(22,320,c),
(48,299,l),
(74,330,o),
(101,353,o),
(116,353,cs),
(123,353,o),
(122,325,o),
(109,281,cs)
);
}
);
};
layerId = m003;
shapes = (
{
closed = 1;
nodes = (
(-60,-234,o),
(87,-78,o),
(128,74,cs),
(202,343,ls),
(214,385,o),
(218,414,o),
(186,414,cs),
(182,414,l),
(179,414,l),
(178,414,ls),
(140,409,o),
(78,372,o),
(23,320,c),
(44,299,l),
(75,330,o),
(107,353,o),
(121,353,cs),
(123,353,o),
(124,353,o),
(125,348,c),
(124,334,o),
(116,302,o),
(106,260,cs),
(56,62,ls),
(23,-72,o),
(-35,-155,o),
(-54,-155,cs),
(-62,-155,o),
(-65,-151,o),
(-69,-144,cs),
(-73,-138,o),
(-77,-132,o),
(-88,-132,cs),
(-121,-132,o),
(-154,-163,o),
(-161,-196,cs),
(-168,-220,o),
(-152,-234,o),
(-125,-234,cs)
);
},
{
closed = 1;
nodes = (
(230,522,o),
(254,540,o),
(258,562,cs),
(266,592,o),
(239,615,o),
(205,615,cs),
(179,615,o),
(156,597,o),
(154,575,cs),
(148,546,o),
(170,522,o),
(202,522,cs)
);
}
);
width = 216;
},
{
associatedMasterId = m003;
background = {
shapes = (
{
closed = 1;
nodes = (
(-22,-158,o),
(-76,-230,o),
(-122,-230,cs),
(-160,-230,o),
(-169,-180,o),
(-144,-109,cs),
(-138,-93,o),
(-142,-81,o),
(-153,-81,cs),
(-194,-81,o),
(-232,-105,o),
(-244,-139,cs),
(-268,-209,o),
(-226,-258,o),
(-143,-258,cs),
(-43,-258,o),
(53,-169,o),
(89,-43,c),
(7,-57,l)
);
}
);
};
layerId = "F26A99E2-B18E-42DF-831C-82EB1608A556";
name = "7. Nov. 24, 19:28";
shapes = (
{
closed = 1;
nodes = (
(-12,-106,o),
(-57,-181,o),
(-103,-181,cs),
(-141,-181,o),
(-150,-131,o),
(-125,-60,cs),
(-119,-44,o),
(-123,-32,o),
(-134,-32,cs),
(-175,-32,o),
(-213,-56,o),
(-225,-90,cs),
(-249,-160,o),
(-207,-209,o),
(-124,-209,cs),
(-24,-209,o),
(60,-116,o),
(108,6,cs),
(254,381,l),
(277,455,o),
(264,508,o),
(224,508,cs),
(163,508,o),
(85,418,o),
(36,290,c),
(66,290,l),
(101,381,o),
(142,446,o),
(165,446,cs),
(185,446,o),
(180,395,o),
(153,323,cs),
(26,-8,ls)
);
},
{
closed = 1;
nodes = (
(283,612,o),
(311,631,o),
(319,659,cs),
(328,687,o),
(311,706,o),
(279,706,cs),
(247,706,o),
(218,687,o),
(209,659,cs),
(201,631,o),
(218,612,o),
(250,612,cs)
);
}
);
width = 263;
}
);
metricWidth = i;
unicode = 106;
},
{
glyphname = k;
lastChange = "2025-02-25 19:13:55 +0000";
layers = (
{
layerId = m003;
shapes = (
{
closed = 1;
nodes = (
(299,264,ls),
(347,291,o),
(377,338,o),
(372,373,cs),
(370,396,o),
(346,414,o),
(317,414,cs),
(254,414,o),
(183,381,o),
(131,280,c),
(137,235,l),
(181,332,o),
(236,357,o),
(281,357,cs),
(296,357,o),
(304,347,o),
(305,334,cs),
(306,316,o),
(288,291,o),
(257,274,cs),
(70,165,l),
(75,134,l)
);
},
{
closed = 1;
nodes = (
(16,-10,o),
(47,-7,o),
(77,-7,c),
(101,104,o),
(187,428,o),
(219,539,cs),
(226,564,o),
(243,615,o),
(253,644,c),
(224,643,o),
(137,632,o),
(66,632,c),
(63,603,l),
(144,607,o),
(160,611,o),
(140,522,cs),
(122,458,o),
(107,402,o),
(93,348,cs),
(57,211,o),
(28,98,o),
(-13,-16,c)
);
},
{
closed = 1;
nodes = (
(395,102,l),
(370,70,o),
(345,47,o),
(322,45,cs),
(298,43,o),
(255,129,o),
(228,253,c),
(164,211,l),
(191,79,o),
(250,-14,o),
(275,-14,cs),
(308,-14,o),
(372,25,o),
(417,80,c)
);
}
);
width = 414;
}
);
unicode = 107;
},
{
glyphname = l;
lastChange = "2025-02-25 19:13:12 +0000";
layers = (
{
layerId = m003;
shapes = (
{
closed = 1;
nodes = (
(115,-14,o),
(182,25,o),
(210,79,c),
(190,97,l),
(167,62,o),
(135,38,o),
(111,38,cs),
(98,38,o),
(94,64,o),
(105,105,cs),
(123,177,o),
(142,250,o),
(160,322,cs),
(179,393,o),
(198,466,o),
(216,538,cs),
(223,563,o),
(240,614,o),
(251,643,c),
(222,642,o),
(133,631,o),
(62,631,c),
(58,602,l),
(112,605,o),
(151,595,o),
(147,578,c),
(147,562,o),
(141,539,o),
(137,521,cs),
(118,445,o),
(100,371,o),
(81,296,cs),
(62,221,o),
(42,146,o),
(24,72,c),
(16,23,o),
(27,-14,o),
(51,-14,cs)
);
}
);
width = 216;
}
);
unicode = 108;
},
{
glyphname = m;
lastChange = "2025-02-24 19:24:39 +0000";
layers = (
{
anchors = (
{
name = bottom;
pos = (296,0);
},
{
name = top;
pos = (382,402);
}
);
layerId = m003;
shapes = (
{
closed = 1;
nodes = (
(535,-15,o),
(587,25,o),
(645,95,c),
(623,116,l),
(589,75,o),
(549,44,o),
(535,44,cs),
(525,44,o),
(538,83,o),
(562,145,cs),
(608,271,ls),
(638,352,o),
(646,415,o),
(591,415,cs),
(526,415,o),
(399,301,o),
(332,144,c),
(312,25,l),
(364,183,o),
(492,349,o),
(550,349,cs),
(565,349,o),
(551,314,o),
(529,249,cs),
(469,91,ls),
(436,0,o),
(466,-15,o),
(498,-15,cs)
);
},
{
closed = 1;
nodes = (
(49,-9,o),
(73,-5,o),
(99,-4,c),
(159,209,o),
(186,318,o),
(189,333,cs),
(198,387,o),
(191,414,o),
(155,414,cs),
(117,414,o),
(79,378,o),
(15,300,c),
(40,279,l),
(70,321,o),
(98,343,o),
(110,343,cs),
(123,343,o),
(116,298,o),
(105,258,cs),
(57,80,o),
(36,23,o),
(23,-14,c)
);
},
{
closed = 1;
nodes = (
(251,-11,o),
(283,-5,o),
(306,-5,c),
(312,22,o),
(352,163,o),
(375,243,cs),
(380,262,o),
(385,279,o),
(388,288,cs),
(408,360,o),
(410,414,o),
(372,414,cs),
(303,414,o),
(198,304,o),
(124,153,c),
(114,54,l),
(158,191,o),
(286,344,o),
(321,344,cs),
(332,344,o),
(328,304,o),
(304,224,cs),
(274,118,o),
(245,31,o),
(228,-15,c)
);
}
);
width = 666;
}
);
metricLeft = n;
metricRight = n;
unicode = 109;
},
{
glyphname = n;
lastChange = "2025-02-25 16:35:59 +0000";
layers = (
{
anchors = (
{
name = bottom;
pos = (189,0);
},
{
name = top;
pos = (283,402);
}
);
layerId = m003;
shapes = (
{
closed = 1;
nodes = (
(50,-7,o),
(75,-3,o),
(101,-2,c),
(162,213,o),
(186,318,o),
(189,333,cs),
(198,387,o),
(191,414,o),
(155,414,cs),
(117,414,o),
(79,378,o),
(15,300,c),
(40,279,l),
(70,321,o),
(98,343,o),
(110,343,cs),
(123,343,o),
(116,298,o),
(105,258,cs),
(57,80,o),
(38,24,o),
(25,-12,c)
);
},
{
closed = 1;
nodes = (
(326,-15,o),
(371,25,o),
(429,95,c),
(407,116,l),
(373,75,o),
(340,44,o),
(326,44,cs),
(316,44,o),
(329,82,o),
(350,145,cs),
(364,187,o),
(379,229,o),
(393,271,cs),
(421,353,o),
(431,415,o),
(376,415,cs),
(310,415,o),
(183,301,o),
(117,144,c),
(97,25,l),
(149,183,o),
(277,349,o),
(335,349,cs),
(349,349,o),
(336,314,o),
(314,249,cs),
(296,196,o),
(274,144,o),
(260,91,cs),
(235,-4,o),
(257,-15,o),
(289,-15,cs)
);
}
);
width = 450;
}
);
unicode = 110;
},
{
glyphname = o;
lastChange = "2025-02-25 18:56:54 +0000";
layers = (
{
anchors = (
{
name = bottom;
pos = (153,0);
},
{
name = center;
pos = (173,201);
},
{
name = ogonek;
pos = (322,10);
},
{
name = top;
pos = (247,402);
},
{
name = topright;
pos = (436,402);
}
);
background = {
shapes = (
{
closed = 1;
nodes = (
(220,-14,o),
(308,55,o),
(346,150,cs),
(409,305,o),
(371,414,o),
(257,414,cs),
(173,414,o),
(85,343,o),
(47,244,cs),
(-13,93,o),
(25,-14,o),
(137,-14,cs)
);
},
{
closed = 1;
nodes = (
(82,13,o),
(77,116,o),
(137,266,cs),
(165,337,o),
(212,387,o),
(249,387,cs),
(314,387,o),
(318,281,o),
(256,127,cs),
(229,60,o),
(183,13,o),
(146,13,cs)
);
},
{
closed = 1;
nodes = (
(220,-14,o),
(308,55,o),
(346,150,cs),
(409,305,o),
(371,414,o),
(257,414,cs),
(173,414,o),
(85,343,o),
(47,244,cs),
(-13,93,o),
(25,-14,o),
(137,-14,cs)
);
},
{
closed = 1;
nodes = (
(82,13,o),
(77,116,o),
(137,266,cs),
(165,337,o),
(212,387,o),
(249,387,cs),
(314,387,o),
(318,281,o),
(256,127,cs),
(229,60,o),
(183,13,o),
(146,13,cs)
);
}
);
};
layerId = m003;
shapes = (
{
closed = 1;
nodes = (
(233,-14,o),
(325,73,o),
(358,195,cs),
(393,323,o),
(351,414,o),
(257,414,cs),
(161,414,o),
(69,325,o),
(35,199,cs),
(2,74,o),
(44,-14,o),
(137,-14,cs)
);
},
{
closed = 1;
nodes = (
(101,13,o),
(93,99,o),
(125,221,cs),
(151,318,o),
(202,387,o),
(249,387,cs),
(294,387,o),
(302,298,o),
(268,172,cs),
(243,79,o),
(193,13,o),
(146,13,cs)
);
}
);
width = 396;
}
);
unicode = 111;
},
{
glyphname = p;
lastChange = "2025-02-25 16:52:35 +0000";
layers = (
{
anchors = (
{
name = bottom;
pos = (156,0);
},
{
name = top;
pos = (278,402);
}
);
background = {
shapes = (
{
closed = 1;
nodes = (
(267,-15,o),
(368,62,o),
(405,172,cs),
(451,308,o),
(414,404,o),
(316,404,cs),
(264,404,o),
(199,373,o),
(159,330,c),
(162,285,l),
(192,326,o),
(241,355,o),
(281,355,cs),
(347,355,o),
(365,268,o),
(324,146,cs),
(300,74,o),
(246,23,o),
(193,23,cs),
(152,23,o),
(136,67,o),
(155,130,cs),
(221,363,o),
(269,534,o),
(271,542,cs),
(280,573,o),
(298,623,o),
(313,662,c),
(286,646,o),
(202,635,o),
(109,635,c),
(105,606,l),
(168,609,o),
(208,599,o),
(203,583,c),
(201,567,o),
(196,543,o),
(191,525,cs),
(75,102,ls),
(56,33,o),
(92,-15,o),
(162,-15,cs)
);
}
);
};
layerId = m003;
shapes = (
{
closed = 1;
nodes = (
(271,-6,o),
(364,78,o),
(395,196,cs),
(429,323,o),
(392,412,o),
(306,412,cs),
(182,412,o),
(63,358,o),
(20,282,c),
(38,260,l),
(77,322,o),
(168,373,o),
(256,373,cs),
(321,373,o),
(345,289,o),
(312,170,cs),
(290,90,o),
(227,33,o),
(160,33,cs),
(143,33,o),
(118,45,o),
(100,62,c),
(91,14,l),
(108,2,o),
(140,-6,o),
(170,-6,cs)
);
},
{
closed = 1;
nodes = (
(127,-192,l),
(134,-167,l),
(98,-161,o),
(69,-155,o),
(65,-151,cs),
(58,-145,o),
(58,-124,o),
(65,-101,cs),
(218,463,l),
(144,458,l),
(-11,-101,ls),
(-18,-125,o),
(-31,-147,o),
(-40,-153,cs),
(-44,-155,o),
(-76,-161,o),
(-118,-167,c),
(-125,-192,l)
);
}
);
width = 432;
},
{
associatedMasterId = m003;
background = {
shapes = (
{
closed = 0;
nodes = (
(-67,-200,l),
(278,700,l)
);
},
{
closed = 0;
nodes = (
(8,-200,l),
(353,700,l)
);
},
{
closed = 0;
nodes = (
(148,-200,l),
(493,700,l)
);
},
{
closed = 0;
nodes = (
(223,-200,l),
(568,700,l)
);
},
{
closed = 0;
nodes = (
(-172,-200,l),
(173,700,l)
);
},
{
closed = 0;
nodes = (
(-142,-200,l),
(203,700,l)
);
},
{
closed = 0;
nodes = (
(298,-200,l),
(643,700,l)
);
},
{
closed = 0;
nodes = (
(328,-200,l),
(673,700,l)
);
}
);
};
layerId = "029680C6-E5C4-473E-9EF7-0B855439BBB5";
name = "6. Nov. 24, 23:23";
shapes = (
{
closed = 1;
nodes = (
(249,-51,o),
(409,59,o),
(470,275,cs),
(504,396,o),
(462,506,o),
(347,506,cs),
(261,506,o),
(134,431,o),
(40,325,c),
(57,299,l),
(143,391,o),
(245,456,o),
(304,456,cs),
(382,456,o),
(401,364,o),
(371,255,cs),
(323,81,o),
(208,-13,o),
(136,41,c),
(127,8,l)
);
},
{
closed = 1;
nodes = (
(200,-200,l),
(209,-172,l),
(95,-172,l),
(278,568,l),
(207,562,l),
(16,-172,l),
(-81,-172,l),
(-89,-200,l)
);
}
);
width = 502;
}
);
metricRight = o;
unicode = 112;
},
{
glyphname = q;
lastChange = "2025-02-25 18:46:32 +0000";
layers = (
{
anchors = (
{
name = bottom;
pos = (245,-193);
},
{
name = top;
pos = (261,402);
}
);
background = {
shapes = (
{
closed = 1;
nodes = (
(119,-15,o),
(220,71,o),
(299,191,c),
(301,242,l),
(230,132,o),
(148,45,o),
(105,45,cs),
(82,45,o),
(102,186,o),
(135,261,cs),
(184,368,o),
(241,367,o),
(302,367,cs),
(317,367,o),
(342,351,o),
(360,338,c),
(398,387,l),
(380,397,o),
(351,399,o),
(333,399,cs),
(220,399,o),
(110,374,o),
(47,234,cs),
(8,145,o),
(-1,-15,o),
(54,-15,cs)
);
}
);
};
layerId = m003;
shapes = (
{
closed = 1;
nodes = (
(326,-192,l),
(333,-167,l),
(295,-161,o),
(272,-160,o),
(262,-151,cs),
(254,-143,o),
(254,-129,o),
(262,-101,cs),
(401,408,l),
(327,403,l),
(186,-101,ls),
(178,-130,o),
(172,-145,o),
(159,-153,cs),
(141,-165,o),
(117,-162,o),
(81,-167,c),
(74,-192,l)
);
},
{
closed = 1;
nodes = (
(125,-15,o),
(227,71,o),
(288,191,c),
(282,242,l),
(228,132,o),
(146,45,o),
(103,45,cs),
(80,45,o),
(80,93,o),
(99,167,cs),
(127,274,o),
(205,370,o),
(266,370,cs),
(286,370,o),
(308,359,o),
(328,341,c),
(359,390,l),
(339,400,o),
(309,402,o),
(291,402,cs),
(178,402,o),
(57,280,o),
(19,140,cs),
(-5,51,o),
(5,-15,o),
(60,-15,cs)
);
}
);
width = 414;
},
{
associatedMasterId = m003;
background = {
shapes = (
{
closed = 0;
nodes = (
(188,-146,l),
(185,-161,o),
(171,-172,o),
(155,-172,c),
(84,-172,l),
(76,-200,l),
(365,-200,l),
(374,-172,l),
(315,-172,l),
(283,-172,o),
(266,-150,o),
(273,-120,c)
);
}
);
};
layerId = "00B6DBDF-8A79-4760-8C61-E953A7B5EE51";
name = "7. Nov. 24, 00:08";
shapes = (
{
closed = 1;
nodes = (
(368,-200,l),
(377,-172,l),
(363,-172,o),
(351,-172,o),
(334,-172,cs),
(290,-172,o),
(268,-143,o),
(281,-101,c),
(433,396,l),
(441,420,o),
(451,447,o),
(457,459,c),
(443,488,o),
(418,508,o),
(395,508,cs),
(258,508,o),
(100,370,o),
(29,175,cs),
(-10,68,o),
(9,-8,o),
(76,-8,cs),
(137,-8,o),
(244,23,o),
(310,106,c),
(312,139,l),
(264,69,o),
(192,62,o),
(163,62,cs),
(93,62,o),
(65,125,o),
(95,213,cs),
(141,345,o),
(230,439,o),
(309,439,cs),
(347,439,o),
(365,414,o),
(354,379,c),
(196,-142,l),
(191,-160,o),
(165,-172,o),
(134,-172,cs),
(84,-172,l),
(76,-200,l)
);
}
);
width = 431;
}
);
metricWidth = o;
unicode = 113;
},
{
glyphname = r;
lastChange = "2025-02-25 16:53:19 +0000";
layers = (
{
associatedMasterId = m003;
layerId = "D557A137-27E6-4560-890F-F4309894473F";
name = "6. Nov. 24, 23:41";
shapes = (
{
closed = 1;
nodes = (
(97,0,l),
(191,250,o),
(263,448,o),
(232,365,cs),
(263,449,o),
(260,508,o),
(216,508,cs),
(157,508,o),
(79,418,o),
(28,290,c),
(58,290,l),
(94,381,o),
(135,446,o),
(157,446,cs),
(177,446,o),
(173,395,o),
(146,323,cs),
(108,221,o),
(56,87,o),
(22,0,c)
);
},
{
closed = 1;
nodes = (
(195,313,o),
(311,474,o),
(333,474,c),
(347,474,o),
(353,456,o),
(353,424,c),
(353,384,o),
(335,365,o),
(335,343,c),
(335,332,o),
(344,329,o),
(348,329,c),
(380,329,o),
(445,349,o),
(445,418,c),
(445,474,o),
(398,508,o),
(337,508,cs),
(300,508,o),
(191,380,o),
(107,198,c),
(110,160,l)
);
}
);
width = 373;
},
{
anchors = (
{
name = bottom;
pos = (127,0);
},
{
name = top;
pos = (221,402);
}
);
layerId = m003;
name = "Groote Garmont Cursyf";
shapes = (
{
closed = 1;
nodes = (
(46,-9,o),
(84,-6,o),
(108,-7,c),
(127,66,o),
(143,125,o),
(156,173,cs),
(180,263,o),
(191,308,o),
(193,321,cs),
(202,374,o),
(194,414,o),
(163,414,cs),
(124,414,o),
(57,365,o),
(3,299,c),
(25,281,l),
(58,321,o),
(94,350,o),
(112,350,cs),
(123,350,o),
(127,329,o),
(118,290,cs),
(115,272,o),
(78,143,o),
(18,-16,c)
);
},
{
closed = 1;
nodes = (
(161,204,o),
(223,325,o),
(267,325,cs),
(273,325,o),
(279,323,o),
(286,321,cs),
(293,319,o),
(299,318,o),
(304,318,cs),
(321,318,o),
(342,340,o),
(351,370,cs),
(360,395,o),
(346,413,o),
(321,413,cs),
(258,413,o),
(166,281,o),
(98,98,c),
(115,33,l)
);
}
);
width = 324;
}
);
metricWidth = c;
unicode = 114;
},
{
glyphname = s;
lastChange = "2025-02-25 19:09:39 +0000";
layers = (
{
anchors = (
{
name = bottom;
pos = (112,0);
},
{
name = top;
pos = (206,402);
}
);
layerId = m003;
shapes = (
{
closed = 1;
nodes = (
(153,35,o),
(125,13,o),
(94,13,cs),
(72,13,o),
(65,43,o),
(78,86,c),
(86,104,o),
(82,117,o),
(67,117,cs),
(35,117,o),
(7,97,o),
(0,68,cs),
(-13,20,o),
(23,-14,o),
(87,-14,cs),
(161,-14,o),
(224,30,o),
(241,92,cs),
(266,185,o),
(114,221,o),
(144,341,cs),
(148,356,o),
(169,386,o),
(184,386,cs),
(222,386,o),
(234,349,o),
(213,297,cs),
(208,284,o),
(212,275,o),
(223,275,cs),
(253,275,o),
(279,292,o),
(286,315,cs),
(303,372,o),
(264,413,o),
(191,413,cs),
(135,413,o),
(80,368,o),
(70,333,cs),
(32,192,o),
(190,172,o),
(162,67,cs)
);
}
);
width = 306;
},
{
associatedMasterId = m003;
background = {
shapes = (
{
closed = 1;
nodes = (
(169,397,l),
(183,445,o),
(210,479,o),
(234,479,cs),
(272,479,o),
(281,429,o),
(256,358,cs),
(250,342,o),
(254,330,o),
(265,330,cs),
(306,330,o),
(344,354,o),
(356,388,cs),
(380,458,o),
(338,507,o),
(255,507,cs),
(177,507,o),
(108,456,o),
(87,383,c)
);
},
{
closed = 1;
nodes = (
(168,104,l),
(148,55,o),
(111,20,o),
(79,20,cs),
(41,20,o),
(32,70,o),
(57,141,cs),
(63,157,o),
(59,169,o),
(48,169,cs),
(7,169,o),
(-31,145,o),
(-43,111,cs),
(-67,41,o),
(-25,-8,o),
(58,-8,cs),
(134,-8,o),
(215,52,o),
(254,137,c)
);
}
);
};
layerId = "EBFBC35F-32CC-450C-9ABA-983167BABF9D";
name = "6. Nov. 24, 21:45";
shapes = (
{
closed = 1;
nodes = (
(-34,45,o),
(-5,-3,o),
(56,-3,cs),
(143,-3,o),
(227,51,o),
(250,128,cs),
(307,313,o),
(134,281,o),
(172,407,cs),
(185,448,o),
(211,477,o),
(235,477,cs),
(266,477,o),
(280,452,o),
(269,416,cs),
(265,404,o),
(271,396,o),
(282,396,cs),
(315,396,o),
(342,408,o),
(347,424,cs),
(362,473,o),
(325,507,o),
(259,507,cs),
(179,507,o),
(114,462,o),
(91,386,cs),
(35,202,o),
(205,224,o),
(169,107,cs),
(156,65,o),
(111,27,o),
(79,27,cs),
(51,27,o),
(44,64,o),
(59,116,cs),
(63,128,o),
(57,137,o),
(45,137,cs),
(15,137,o),
(-9,127,o),
(-13,113,cs)
);
}
);
width = 334;
}
);
metricLeft = o;
metricRight = o;
metricWidth = c;
unicode = 115;
},
{
glyphname = germandbls;
lastChange = "2025-02-25 18:55:39 +0000";
layers = (
{
anchors = (
{
name = bottom;
pos = (174,0);
},
{
name = top;
pos = (368,637);
}
);
background = {
shapes = (
{
closed = 1;
nodes = (
(-106,-234,o),
(-65,-202,o),
(-26,-164,cs),
(67,-78,o),
(107,68,o),
(124,148,cs),
(131,180,o),
(137,210,o),
(144,241,cs),
(161,323,o),
(177,402,o),
(198,486,cs),
(217,562,o),
(270,608,o),
(311,608,cs),
(355,608,o),
(378,581,o),
(366,542,cs),
(361,529,o),
(367,520,o),
(377,520,cs),
(408,520,o),
(437,538,o),
(443,561,cs),
(456,610,o),
(412,643,o),
(337,643,cs),
(236,643,o),
(132,559,o),
(104,434,cs),
(93,383,o),
(80,318,o),
(68,254,cs),
(52,175,o),
(36,95,o),
(22,32,cs),
(2,-55,o),
(-8,-89,o),
(-50,-137,cs),
(-60,-149,o),
(-72,-155,o),
(-81,-155,cs),
(-89,-155,o),
(-92,-151,o),
(-97,-144,cs),
(-101,-138,o),
(-105,-132,o),
(-116,-132,cs),
(-148,-132,o),
(-181,-163,o),
(-190,-205,cs),
(-193,-220,o),
(-178,-234,o),
(-151,-234,cs)
);
},
{
closed = 1;
nodes = (
(241,357,l),
(261,406,l),
(81,402,l),
(-6,382,l),
(-10,369,l)
);
}
);
};
layerId = m003;
shapes = (
{
closed = 1;
nodes = (
(-109,-234,o),
(-67,-202,o),
(-26,-164,cs),
(64,-81,o),
(108,68,o),
(125,148,cs),
(145,241,ls),
(163,323,o),
(175,402,o),
(199,486,cs),
(222,563,o),
(294,609,o),
(336,608,cs),
(404,607,o),
(412,550,o),
(409,481,cs),
(407,439,o),
(376,429,o),
(343,412,cs),
(295,387,o),
(259,366,o),
(247,323,cs),
(209,182,o),
(350,172,o),
(322,67,cs),
(313,35,o),
(285,13,o),
(254,13,cs),
(232,13,o),
(225,43,o),
(238,86,c),
(246,104,o),
(242,117,o),
(227,117,cs),
(195,117,o),
(167,97,o),
(160,68,cs),
(147,20,o),
(183,-14,o),
(247,-14,cs),
(321,-14,o),
(384,30,o),
(401,92,cs),
(426,185,o),
(291,210,o),
(324,329,cs),
(333,363,o),
(351,382,o),
(393,402,cs),
(437,423,o),
(471,427,o),
(475,513,cs),
(478,578,o),
(458,637,o),
(366,643,cs),
(265,645,o),
(128,564,o),
(103,434,cs),
(69,254,ls),
(54,174,o),
(42,95,o),
(25,32,cs),
(2,-55,o),
(-5,-89,o),
(-49,-137,cs),
(-59,-149,o),
(-72,-155,o),
(-81,-155,cs),
(-89,-155,o),
(-92,-151,o),
(-96,-144,cs),
(-100,-138,o),
(-104,-132,o),
(-115,-132,cs),
(-147,-132,o),
(-181,-163,o),
(-192,-205,cs),
(-196,-220,o),
(-181,-234,o),
(-154,-234,cs)
);
}
);
width = 450;
}
);
unicode = 223;
},
{
glyphname = t;
lastChange = "2025-02-25 18:45:38 +0000";
layers = (
{
anchors = (
{
name = bottom;
pos = (92,0);
},
{
name = center;
pos = (139,201);
},
{
name = top;
pos = (212,507);
},
{
name = topright;
pos = (364,637);
}
);
layerId = m003;
shapes = (
{
closed = 1;
nodes = (
(109,-14,o),
(173,32,o),
(224,95,c),
(200,114,l),
(168,74,o),
(134,45,o),
(118,45,cs),
(105,45,o),
(101,87,o),
(117,151,cs),
(131,211,o),
(146,275,o),
(161,335,cs),
(180,406,o),
(209,467,o),
(220,507,c),
(190,493,o),
(158,489,o),
(128,487,c),
(97,365,o),
(67,242,o),
(33,121,cs),
(11,41,o),
(32,-14,o),
(71,-14,cs)
);
},
{
closed = 1;
nodes = (
(270,357,l),
(284,406,l),
(104,402,l),
(21,382,l),
(17,369,l)
);
}
);
width = 270;
}
);
metricWidth = i;
unicode = 116;
},
{
glyphname = u;
lastChange = "2025-02-25 19:09:05 +0000";
layers = (
{
anchors = (
{
name = bottom;
pos = (179,0);
},
{
name = ogonek;
pos = (369,10);
},
{
name = top;
pos = (273,402);
},
{
name = topright;
pos = (487,402);
}
);
layerId = m003;
shapes = (
{
closed = 1;
nodes = (
(414,412,o),
(383,408,o),
(346,404,c),
(332,347,o),
(319,297,o),
(308,254,cs),
(275,131,o),
(256,57,o),
(255,30,cs),
(254,-3,o),
(271,-15,o),
(303,-15,cs),
(333,-15,o),
(392,32,o),
(439,95,c),
(414,116,l),
(384,73,o),
(351,43,o),
(336,43,cs),
(324,43,o),
(336,91,o),
(351,152,cs),
(397,333,o),
(381,270,o),
(421,413,c)
);
},
{
closed = 1;
nodes = (
(119,415,o),
(65,366,o),
(20,300,c),
(46,279,l),
(73,319,o),
(108,359,o),
(125,359,cs),
(133,359,o),
(127,315,o),
(107,258,cs),
(61,129,ls),
(34,46,o),
(47,-15,o),
(93,-15,cs),
(173,-15,o),
(273,97,o),
(334,256,c),
(350,374,l),
(290,186,o),
(198,51,o),
(144,51,cs),
(122,51,o),
(128,92,o),
(145,153,cs),
(151,176,o),
(159,201,o),
(167,223,cs),
(181,265,o),
(195,308,o),
(202,353,cs),
(206,401,o),
(187,415,o),
(152,415,cs)
);
}
);
width = 450;
},
{
associatedMasterId = m003;
layerId = "ABB09411-EC44-4418-BAB9-7685FF2C341E";
name = "6. Nov. 24, 23:15";
shapes = (
{
closed = 1;
nodes = (
(418,509,l),
(324,259,o),
(246,61,o),
(277,144,c),
(244,56,o),
(247,-7,o),
(284,-7,cs),
(348,-7,o),
(432,87,o),
(485,219,c),
(455,219,l),
(424,141,o),
(381,86,o),
(352,86,cs),
(340,86,o),
(347,127,o),
(369,186,cs),
(395,258,o),
(447,391,o),
(493,509,c)
);
},
{
closed = 1;
nodes = (
(159,517,o),
(75,423,o),
(22,291,c),
(52,291,l),
(83,369,o),
(126,424,o),
(155,424,cs),
(167,424,o),
(163,383,o),
(138,324,c),
(63,150,l),
(24,60,o),
(42,-7,o),
(94,-7,cs),
(151,-7,o),
(247,87,o),
(327,221,c),
(327,264,l),
(268,159,o),
(177,77,o),
(138,77,cs),
(114,77,o),
(131,134,o),
(160,201,c),
(230,366,l),
(267,453,o),
(260,517,o),
(223,517,cs)
);
}
);
width = 495;
}
);
metricLeft = n;
metricRight = n;
metricWidth = n;
unicode = 117;
},
{
glyphname = v;
lastChange = "2025-02-25 19:14:50 +0000";
layers = (
{
anchors = (
{
name = bottom;
pos = (143,0);
},
{
name = top;
pos = (237,402);
}
);
background = {
shapes = (
{
closed = 1;
nodes = (
(227,-14,o),
(343,132,o),
(396,338,c),
(343,274,l),
(308,139,o),
(238,54,o),
(151,54,cs),
(109,54,o),
(72,92,o),
(102,186,cs),
(124,250,o),
(166,264,o),
(185,333,cs),
(198,380,o),
(176,414,o),
(138,414,cs),
(111,414,o),
(53,367,o),
(-3,300,c),
(23,279,l),
(48,316,o),
(77,343,o),
(93,343,cs),
(119,343,o),
(129,312,o),
(116,268,cs),
(102,219,o),
(45,175,o),
(32,118,cs),
(14,41,o),
(45,-14,o),
(106,-14,cs)
);
},
{
closed = 1;
nodes = (
(409,-14,o),
(509,86,o),
(547,227,cs),
(577,336,o),
(567,413,o),
(522,413,cs),
(496,413,o),
(474,396,o),
(468,373,cs),
(461,346,o),
(456,317,o),
(471,317,cs),
(506,317,o),
(516,267,o),
(496,197,cs),
(470,102,o),
(422,54,o),
(351,54,cs),
(280,54,o),
(246,138,o),
(279,257,cs),
(321,407,o),
(365,349,o),
(343,274,c),
(396,338,l),
(428,435,o),
(295,453,o),
(240,256,cs),
(196,98,o),
(228,-14,o),
(306,-14,cs)
);
}
);
};
layerId = m003;
shapes = (
{
closed = 1;
nodes = (
(200,-14,o),
(296,90,o),
(333,237,cs),
(360,346,o),
(343,423,o),
(292,423,cs),
(266,423,o),
(244,396,o),
(238,373,cs),
(231,346,o),
(236,317,o),
(251,317,cs),
(293,317,o),
(301,269,o),
(276,173,cs),
(258,103,o),
(203,64,o),
(151,64,cs),
(98,64,o),
(78,109,o),
(103,187,c),
(125,251,o),
(166,264,o),
(185,333,cs),
(198,380,o),
(179,414,o),
(138,414,cs),
(111,414,o),
(53,367,o),
(-3,300,c),
(23,279,l),
(48,316,o),
(77,343,o),
(93,343,cs),
(119,343,o),
(119,312,o),
(106,268,cs),
(92,219,o),
(45,175,o),
(32,118,cs),
(14,41,o),
(49,-14,o),
(116,-14,cs)
);
}
);
width = 360;
}
);
metricWidth = o;
unicode = 118;
},
{
glyphname = w;
lastChange = "2025-02-25 19:15:23 +0000";
layers = (
{
anchors = (
{
name = bottom;
pos = (239,0);
},
{
name = top;
pos = (333,402);
}
);
background = {
anchors = (
{
name = bottom;
pos = (370,0);
},
{
name = top;
pos = (464,402);
}
);
shapes = (
{
closed = 1;
nodes = (
(427,-14,o),
(513,90,o),
(550,237,cs),
(577,346,o),
(560,423,o),
(509,423,cs),
(483,423,o),
(461,406,o),
(455,383,cs),
(448,356,o),
(453,337,o),
(468,337,cs),
(510,337,o),
(522,269,o),
(497,173,cs),
(479,103,o),
(430,54,o),
(378,54,cs),
(325,54,o),
(305,109,o),
(330,187,c),
(352,251,o),
(393,264,o),
(412,333,cs),
(425,380,o),
(406,414,o),
(365,414,cs),
(338,414,o),
(280,367,o),
(224,300,c),
(250,279,l),
(275,316,o),
(304,343,o),
(320,343,cs),
(346,343,o),
(356,312,o),
(343,268,cs),
(329,219,o),
(272,175,o),
(259,118,cs),
(241,41,o),
(276,-14,o),
(343,-14,cs)
);
}
);
};
layerId = m003;
shapes = (
{
closed = 1;
nodes = (
(233,-14,o),
(360,139,o),
(396,345,c),
(340,274,l),
(317,145,o),
(240,64,o),
(161,64,cs),
(108,64,o),
(77,109,o),
(102,186,cs),
(124,250,o),
(166,264,o),
(185,333,cs),
(198,380,o),
(179,414,o),
(138,414,cs),
(111,414,o),
(53,367,o),
(-3,300,c),
(23,279,l),
(48,316,o),
(77,343,o),
(93,343,cs),
(119,343,o),
(119,312,o),
(106,268,cs),
(92,219,o),
(45,175,o),
(32,118,cs),
(14,41,o),
(55,-14,o),
(116,-14,cs)
);
},
{
closed = 1;
nodes = (
(419,-14,o),
(509,86,o),
(547,227,cs),
(579,342,o),
(564,423,o),
(512,423,cs),
(485,423,o),
(461,396,o),
(455,373,cs),
(446,340,o),
(453,317,o),
(471,317,cs),
(507,317,o),
(518,273,o),
(496,197,cs),
(473,113,o),
(423,64,o),
(361,64,cs),
(286,64,o),
(256,138,o),
(279,257,cs),
(309,410,o),
(356,349,o),
(340,274,c),
(396,345,l),
(413,442,o),
(283,456,o),
(240,256,cs),
(206,98,o),
(233,-14,o),
(316,-14,cs)
);
}
);
width = 576;
},
{
associatedMasterId = m003;
layerId = "5A38C2F5-2BB2-4579-8BD4-F84C47CF3AA8";
name = "6. Nov. 24, 23:46";
shapes = (
{
closed = 1;
nodes = (
(433,-7,o),
(532,107,o),
(582,268,cs),
(624,408,o),
(610,507,o),
(548,507,cs),
(519,507,o),
(492,485,o),
(483,455,cs),
(474,428,o),
(479,409,o),
(496,409,cs),
(548,409,o),
(561,329,o),
(527,216,cs),
(500,129,o),
(442,67,o),
(388,67,cs),
(372,67,o),
(351,78,o),
(338,93,c),
(359,115,o),
(386,170,o),
(402,224,cs),
(424,295,o),
(413,345,o),
(374,345,cs),
(317,345,o),
(258,275,o),
(231,176,cs),
(223,145,o),
(223,103,o),
(233,74,c),
(222,70,o),
(203,67,o),
(188,67,cs),
(133,67,o),
(118,145,o),
(153,256,cs),
(187,367,o),
(239,424,o),
(253,469,cs),
(260,491,o),
(242,507,o),
(209,507,cs),
(135,507,o),
(62,463,o),
(33,400,cs),
(0,331,l),
(41,338,l),
(63,384,ls),
(71,401,o),
(96,413,o),
(123,413,cs),
(151,413,o),
(164,390,o),
(154,357,cs),
(144,324,o),
(74,216,o),
(61,176,cs),
(29,69,o),
(63,-7,o),
(143,-7,cs),
(174,-7,o),
(220,10,o),
(252,35,c),
(272,10,o),
(309,-7,o),
(343,-7,cs)
);
},
{
closed = 1;
nodes = (
(296,149,o),
(293,207,o),
(313,266,cs),
(322,288,o),
(339,304,o),
(354,304,cs),
(379,304,o),
(381,259,o),
(358,196,cs),
(349,169,o),
(333,140,o),
(320,127,c)
);
}
);
width = 630;
}
);
unicode = 119;
},
{
glyphname = x;
lastChange = "2025-02-25 19:15:54 +0000";
layers = (
{
anchors = (
{
name = bottom;
pos = (154,0);
},
{
name = top;
pos = (276,402);
}
);
background = {
shapes = (
{
closed = 0;
nodes = (
(200,334,ls),
(214,388,o),
(209,412,o),
(175,412,cs),
(138,412,o),
(98,377,o),
(29,300,c),
(50,282,l),
(81,322,o),
(111,345,o),
(124,345,cs),
(140,345,o),
(129,297,o),
(115,257,cs)
);
}
);
};
layerId = m003;
shapes = (
{
closed = 1;
nodes = (
(69,-9,o),
(160,113,o),
(230,207,cs),
(282,277,o),
(328,337,o),
(342,337,cs),
(369,337,o),
(390,324,o),
(389,304,c),
(441,366,l),
(427,394,o),
(404,414,o),
(387,414,cs),
(352,414,o),
(256,290,o),
(180,192,cs),
(129,126,o),
(87,72,o),
(78,72,cs),
(66,72,o),
(51,87,o),
(44,106,c),
(-18,59,l),
(-8,20,o),
(10,-9,o),
(24,-9,cs)
);
},
{
closed = 1;
nodes = (
(295,-9,o),
(361,35,o),
(393,75,c),
(372,96,l),
(355,74,o),
(318,49,o),
(297,49,cs),
(288,49,o),
(274,113,o),
(261,188,cs),
(242,291,o),
(219,414,o),
(185,414,cs),
(153,414,o),
(87,366,o),
(48,320,c),
(72,299,l),
(101,337,o),
(118,344,o),
(137,344,cs),
(150,344,o),
(162,284,o),
(174,213,cs),
(191,112,o),
(212,-9,o),
(257,-9,cs)
);
}
);
width = 432;
}
);
unicode = 120;
},
{
glyphname = y;
lastChange = "2025-02-25 19:04:12 +0000";
layers = (
{
anchors = (
{
name = bottom;
pos = (144,0);
},
{
name = top;
pos = (238,402);
}
);
background = {
shapes = (
{
closed = 1;
nodes = (
(82,-178,o),
(164,-89,o),
(252,50,cs),
(309,142,o),
(355,256,o),
(378,372,cs),
(385,396,o),
(358,414,o),
(322,414,cs),
(291,414,o),
(270,393,o),
(274,366,cs),
(274,362,o),
(280,351,o),
(283,346,cs),
(326,282,o),
(294,177,o),
(218,60,cs),
(133,-72,o),
(48,-145,o),
(25,-145,cs),
(4,-145,o),
(-15,-124,o),
(-6,-86,cs),
(1,-65,o),
(-6,-55,o),
(-17,-55,cs),
(-48,-55,o),
(-74,-72,o),
(-79,-95,cs),
(-91,-145,o),
(-47,-178,o),
(19,-178,cs)
);
},
{
closed = 1;
nodes = (
(21,279,l),
(49,320,o),
(70,339,o),
(93,339,cs),
(109,339,o),
(137,181,o),
(142,-57,c),
(203,-5,l),
(204,240,o),
(196,414,o),
(126,414,cs),
(98,414,o),
(44,367,o),
(-5,300,c)
);
}
);
};
layerId = m003;
shapes = (
{
closed = 1;
nodes = (
(84,-178,o),
(184,-84,o),
(269,50,cs),
(324,138,o),
(370,232,o),
(379,279,cs),
(403,358,o),
(386,414,o),
(339,414,cs),
(308,414,o),
(282,394,o),
(276,366,cs),
(269,337,o),
(281,317,o),
(306,317,cs),
(363,317,o),
(333,211,o),
(235,60,cs),
(162,-54,o),
(82,-135,o),
(42,-135,cs),
(22,-135,o),
(13,-111,o),
(21,-76,cs),
(27,-58,o),
(22,-45,o),
(10,-45,cs),
(-26,-45,o),
(-56,-66,o),
(-62,-95,cs),
(-74,-144,o),
(-37,-178,o),
(26,-178,cs)
);
},
{
closed = 1;
nodes = (
(21,279,l),
(49,320,o),
(70,339,o),
(93,339,cs),
(109,339,o),
(166,188,o),
(171,-50,c),
(232,2,l),
(249,247,o),
(196,414,o),
(126,414,cs),
(98,414,o),
(44,367,o),
(-5,300,c)
);
}
);
width = 378;
}
);
metricWidth = c;
unicode = 121;
},
{
glyphname = z;
lastChange = "2025-02-24 19:00:42 +0000";
layers = (
{
anchors = (
{
name = bottom;
pos = (136,0);
},
{
name = center;
pos = (183,201);
},
{
name = top;
pos = (230,402);
}
);
layerId = m003;
shapes = (
{
closed = 1;
nodes = (
(385,383,l),
(363,401,l),
(-37,13,l),
(-11,-5,l)
);
},
{
closed = 1;
nodes = (
(11,7,o),
(41,19,o),
(69,17,cs),
(75,16,o),
(86,11,o),
(101,5,cs),
(122,-5,o),
(149,-17,o),
(172,-19,cs),
(219,-22,o),
(271,6,o),
(297,47,cs),
(337,117,l),
(316,127,l),
(285,83,ls),
(270,60,o),
(229,48,o),
(201,50,cs),
(190,51,o),
(173,59,o),
(156,66,cs),
(136,75,o),
(114,84,o),
(97,86,cs),
(49,89,o),
(-7,50,o),
(-37,12,c),
(-5,-11,l)
);
},
{
closed = 1;
nodes = (
(86,311,ls),
(99,334,o),
(137,346,o),
(161,344,cs),
(171,344,o),
(188,336,o),
(204,329,cs),
(223,321,o),
(244,311,o),
(259,310,cs),
(304,306,o),
(348,339,o),
(385,383,c),
(356,406,l),
(342,388,o),
(311,377,o),
(286,379,cs),
(281,379,o),
(270,384,o),
(256,390,cs),
(236,400,o),
(209,412,o),
(188,414,cs),
(145,417,o),
(95,389,o),
(71,348,cs),
(33,277,l),
(57,267,l)
);
}
);
width = 378;
}
);
unicode = 122;
},
{
glyphname = zero;
lastChange = "2025-02-24 19:32:27 +0000";
layers = (
{
hints = (
{
horizontal = 1;
place = (401,29);
type = Stem;
},
{
horizontal = 1;
place = (-21,29);
type = Stem;
},
{
place = (390,76);
type = Stem;
},
{
place = (22,76);
type = Stem;
}
);
layerId = m003;
shapes = (
{
closed = 1;
nodes = (
(316,-16,o),
(434,84,o),
(472,225,cs),
(506,354,o),
(441,446,o),
(313,446,cs),
(188,446,o),
(74,354,o),
(40,225,cs),
(2,84,o),
(63,-16,o),
(189,-16,cs)
);
},
{
closed = 1;
nodes = (
(250,17,o),
(165,52,o),
(123,148,cs),
(86,234,o),
(108,324,o),
(176,365,cs),
(256,413,o),
(339,385,o),
(375,298,cs),
(416,202,o),
(397,105,o),
(327,63,cs)
);
}
);
width = 486;
}
);
unicode = 48;
},
{
glyphname = one;
lastChange = "2025-02-24 19:32:27 +0000";
layers = (
{
hints = (
{
horizontal = 1;
place = (402,25);
type = Stem;
},
{
horizontal = 1;
place = (-13,26);
type = Stem;
},
{
place = (107,67);
type = Stem;
}
);
layerId = m003;
shapes = (
{
closed = 1;
nodes = (
(221,-5,l),
(227,19,l),
(210,23,o),
(188,32,o),
(179,40,cs),
(168,51,o),
(163,77,o),
(168,98,cs),
(177,132,o),
(196,204,o),
(216,279,cs),
(230,331,o),
(254,405,o),
(271,446,c),
(75,396,l),
(68,368,l),
(124,368,o),
(161,344,o),
(153,313,cs),
(137,252,o),
(98,102,o),
(91,79,cs),
(88,70,o),
(72,54,o),
(54,43,cs),
(40,34,o),
(11,24,o),
(-12,20,c),
(-19,-5,l)
);
}
);
width = 288;
}
);
unicode = 49;
},
{
glyphname = two;
lastChange = "2025-02-24 19:32:27 +0000";
layers = (
{
hints = (
{
horizontal = 1;
place = (379,53);
type = Stem;
},
{
horizontal = 1;
place = (-13,57);
type = Stem;
},
{
place = (235,84);
type = Stem;
}
);
layerId = m003;
shapes = (
{
closed = 1;
nodes = (
(318,-5,l),
(392,94,l),
(273,74,o),
(156,63,o),
(42,63,c),
(37,36,l),
(221,158,o),
(361,239,o),
(384,326,cs),
(407,413,o),
(357,446,o),
(282,446,cs),
(208,446,o),
(133,396,o),
(95,355,c),
(117,335,l),
(158,366,o),
(202,384,o),
(229,384,cs),
(276,384,o),
(300,349,o),
(290,310,cs),
(276,258,o),
(206,189,o),
(115,126,cs),
(-45,13,l),
(-43,-5,l)
);
}
);
width = 432;
}
);
unicode = 50;
},
{
glyphname = three;
lastChange = "2025-02-24 19:32:27 +0000";
layers = (
{
hints = (
{
horizontal = 1;
place = (374,54);
type = Stem;
},
{
horizontal = 1;
place = (132,39);
type = Stem;
},
{
horizontal = 1;
place = (-251,69);
type = Stem;
},
{
place = (201,80);
type = Stem;
}
);
layerId = m003;
shapes = (
{
closed = 1;
nodes = (
(73,-199,o),
(229,-63,o),
(263,64,cs),
(282,135,o),
(250,185,o),
(186,185,cs),
(160,185,o),
(122,176,o),
(94,164,cs),
(123,179,o),
(101,175,o),
(40,156,c),
(48,126,l),
(67,134,o),
(94,140,o),
(114,140,cs),
(167,140,o),
(193,96,o),
(177,33,cs),
(154,-50,o),
(36,-154,o),
(-105,-205,c),
(-106,-238,l)
);
},
{
closed = 1;
nodes = (
(62,133,o),
(88,160,o),
(112,171,cs),
(213,216,o),
(304,292,o),
(321,354,cs),
(335,408,o),
(295,446,o),
(238,446,cs),
(193,446,o),
(122,411,o),
(67,361,c),
(77,339,l),
(112,365,o),
(163,384,o),
(190,384,cs),
(220,384,o),
(236,359,o),
(226,324,cs),
(214,277,o),
(137,208,o),
(40,156,c),
(48,126,l)
);
}
);
width = 324;
}
);
unicode = 51;
},
{
glyphname = four;
lastChange = "2025-02-24 19:32:27 +0000";
layers = (
{
hints = (
{
horizontal = 1;
place = (-13,46);
type = Stem;
},
{
horizontal = 1;
place = (407,21);
target = up;
type = BottomGhost;
},
{
place = (297,69);
type = Stem;
}
);
layerId = m003;
shapes = (
{
closed = 1;
nodes = (
(267,-205,l),
(323,8,o),
(380,222,o),
(441,435,c),
(396,435,l),
(-26,53,l),
(-38,9,l),
(109,9,o),
(255,3,o),
(401,-1,c),
(421,75,l),
(284,72,o),
(144,69,o),
(7,69,c),
(2,38,l),
(377,374,l),
(344,352,l),
(285,166,o),
(240,-5,o),
(187,-205,c)
);
}
);
width = 468;
}
);
unicode = 52;
},
{
glyphname = five;
lastChange = "2025-02-24 19:32:27 +0000";
layers = (
{
hints = (
{
horizontal = 1;
place = (363,60);
type = Stem;
},
{
place = (176,69);
type = Stem;
}
);
layerId = m003;
shapes = (
{
closed = 1;
nodes = (
(66,-184,o),
(213,-59,o),
(244,58,cs),
(270,156,o),
(205,257,o),
(88,302,c),
(77,269,l),
(166,406,l),
(117,363,l),
(200,368,o),
(281,364,o),
(359,353,c),
(417,435,l),
(153,435,l),
(37,252,l),
(130,187,o),
(182,94,o),
(164,26,cs),
(143,-53,o),
(26,-147,o),
(-121,-208,c),
(-113,-243,l)
);
}
);
width = 360;
}
);
unicode = 53;
},
{
glyphname = six;
lastChange = "2025-02-24 19:32:27 +0000";
layers = (
{
hints = (
{
horizontal = 1;
place = (304,42);
type = Stem;
},
{
horizontal = 1;
place = (-18,28);
type = Stem;
},
{
horizontal = 1;
place = (672,21);
target = up;
type = BottomGhost;
},
{
place = (335,72);
type = Stem;
},
{
place = (25,79);
type = Stem;
}
);
layerId = m003;
shapes = (
{
closed = 1;
nodes = (
(279,-16,o),
(385,69,o),
(418,190,cs),
(445,294,o),
(390,368,o),
(291,368,cs),
(255,368,o),
(209,352,o),
(182,330,c),
(192,307,l),
(206,316,o),
(230,323,o),
(248,323,cs),
(319,323,o),
(352,258,o),
(327,166,cs),
(305,83,o),
(244,24,o),
(180,24,cs),
(113,24,o),
(91,124,o),
(128,265,cs),
(173,434,o),
(359,592,o),
(580,661,c),
(576,705,l),
(311,621,o),
(88,428,o),
(36,233,cs),
(-3,87,o),
(52,-16,o),
(169,-16,cs)
);
}
);
width = 450;
}
);
unicode = 54;
},
{
glyphname = seven;
lastChange = "2025-02-24 19:32:27 +0000";
layers = (
{
hints = (
{
horizontal = 1;
place = (362,58);
type = Stem;
}
);
layerId = m003;
shapes = (
{
closed = 1;
nodes = (
(-4,-249,l),
(538,439,l),
(117,439,l),
(51,339,l),
(187,356,o),
(322,366,o),
(455,367,c),
(455,405,l),
(-38,-218,l)
);
}
);
width = 450;
}
);
unicode = 55;
},
{
glyphname = eight;
lastChange = "2025-02-24 19:32:27 +0000";
layers = (
{
hints = (
{
horizontal = 1;
place = (646,39);
type = Stem;
},
{
horizontal = 1;
place = (-22,30);
type = Stem;
},
{
place = (291,56);
type = Stem;
},
{
place = (16,65);
type = Stem;
}
);
layerId = m003;
shapes = (
{
closed = 1;
nodes = (
(249,-16,o),
(344,54,o),
(371,154,c),
(412,308,o),
(164,378,o),
(196,498,cs),
(214,565,o),
(261,611,o),
(314,611,c),
(324,647,l),
(230,647,o),
(144,573,o),
(116,469,cs),
(74,308,o),
(320,227,o),
(293,126,c),
(277,64,o),
(219,20,o),
(152,20,c),
(141,-16,l)
);
},
{
closed = 1;
nodes = (
(152,20,l),
(91,20,o),
(62,72,o),
(81,146,cs),
(97,206,o),
(156,272,o),
(226,308,c),
(201,323,l),
(105,276,o),
(24,197,o),
(3,119,cs),
(-18,40,o),
(39,-16,o),
(141,-16,c)
);
},
{
closed = 1;
nodes = (
(314,611,l),
(375,611,o),
(395,559,o),
(375,485,cs),
(359,426,o),
(302,368,o),
(233,332,c),
(257,317,l),
(354,364,o),
(431,435,o),
(452,512,cs),
(474,592,o),
(426,647,o),
(324,647,c)
);
}
);
width = 414;
}
);
unicode = 56;
},
{
glyphname = nine;
lastChange = "2025-02-24 19:32:27 +0000";
layers = (
{
hints = (
{
horizontal = 1;
place = (398,29);
type = Stem;
},
{
horizontal = 1;
place = (69,43);
type = Stem;
},
{
place = (319,79);
type = Stem;
},
{
place = (21,71);
type = Stem;
}
);
layerId = m003;
shapes = (
{
closed = 1;
nodes = (
(179,446,o),
(75,368,o),
(45,257,cs),
(20,161,o),
(77,94,o),
(176,94,cs),
(212,94,o),
(257,108,o),
(284,128,c),
(273,149,l),
(260,141,o),
(236,135,o),
(218,135,cs),
(147,135,o),
(113,194,o),
(135,279,cs),
(155,355,o),
(215,409,o),
(279,409,cs),
(346,409,o),
(370,317,o),
(336,188,cs),
(295,33,o),
(106,-139,o),
(-114,-203,c),
(-108,-243,l),
(154,-166,o),
(380,38,o),
(428,217,cs),
(463,351,o),
(406,446,o),
(289,446,cs)
);
}
);
width = 450;
}
);
unicode = 57;
},
{
glyphname = period;
lastChange = "2025-02-24 19:01:21 +0000";
layers = (
{
layerId = m003;
shapes = (
{
closed = 1;
nodes = (
(111,0,o),
(151,17,o),
(164,47,cs),
(176,75,o),
(156,105,o),
(121,113,cs),
(85,121,o),
(45,104,o),
(32,75,cs),
(19,46,o),
(38,16,o),
(76,8,c)
);
}
);
width = 270;
}
);
unicode = 46;
},
{
glyphname = comma;
lastChange = "2025-02-25 19:16:38 +0000";
layers = (
{
layerId = m003;
shapes = (
{
closed = 1;
nodes = (
(59,-106,o),
(137,-48,o),
(170,7,cs),
(218,89,o),
(215,162,o),
(164,183,cs),
(132,195,o),
(96,182,o),
(79,152,cs),
(60,121,o),
(67,91,o),
(96,80,cs),
(129,67,o),
(133,24,o),
(105,-23,cs),
(90,-47,o),
(35,-81,o),
(-28,-104,c),
(-18,-132,l)
);
}
);
width = 270;
}
);
unicode = 44;
},
{
glyphname = colon;
lastChange = "2025-02-24 19:01:35 +0000";
layers = (
{
layerId = m003;
shapes = (
{
closed = 1;
nodes = (
(189,300,o),
(229,317,o),
(242,347,cs),
(255,375,o),
(235,405,o),
(199,413,cs),
(163,421,o),
(123,404,o),
(111,375,cs),
(98,346,o),
(117,316,o),
(154,308,c)
);
},
{
closed = 1;
nodes = (
(111,0,o),
(151,17,o),
(164,47,cs),
(176,75,o),
(156,105,o),
(121,113,cs),
(85,121,o),
(45,104,o),
(32,75,cs),
(19,46,o),
(38,16,o),
(76,8,c)
);
}
);
width = 270;
}
);
unicode = 58;
},
{
glyphname = semicolon;
lastChange = "2025-02-25 19:16:56 +0000";
layers = (
{
layerId = m003;
shapes = (
{
closed = 1;
nodes = (
(189,300,o),
(229,317,o),
(242,347,cs),
(255,375,o),
(235,405,o),
(199,413,cs),
(163,421,o),
(123,404,o),
(111,375,cs),
(98,346,o),
(117,316,o),
(154,308,c)
);
},
{
closed = 1;
nodes = (
(59,-106,o),
(137,-48,o),
(170,7,cs),
(218,89,o),
(215,162,o),
(164,183,cs),
(132,195,o),
(96,182,o),
(79,152,cs),
(60,121,o),
(67,91,o),
(96,80,cs),
(129,67,o),
(133,24,o),
(105,-23,cs),
(90,-47,o),
(35,-81,o),
(-28,-104,c),
(-18,-132,l)
);
}
);
width = 270;
}
);
unicode = 59;
},
{
glyphname = hyphen;
lastChange = "2025-02-24 19:01:47 +0000";
layers = (
{
layerId = m003;
shapes = (
{
closed = 1;
nodes = (
(316,223,l),
(343,285,l),
(79,285,l),
(52,223,l)
);
}
);
width = 378;
}
);
unicode = 45;
},
{
glyphname = dieresiscomb;
lastChange = "2025-02-24 19:02:01 +0000";
layers = (
{
anchors = (
{
name = _top;
pos = (212,435);
},
{
name = top;
pos = (289,703);
}
);
layerId = m003;
shapes = (
{
closed = 1;
nodes = (
(206,538,o),
(227,564,o),
(227,597,cs),
(227,630,o),
(206,656,o),
(180,656,cs),
(153,656,o),
(132,630,o),
(132,597,cs),
(132,564,o),
(153,538,o),
(180,538,cs)
);
},
{
closed = 1;
nodes = (
(351,538,o),
(372,564,o),
(372,597,cs),
(372,630,o),
(351,656,o),
(324,656,cs),
(298,656,o),
(277,630,o),
(277,597,cs),
(277,564,o),
(298,538,o),
(324,538,cs)
);
}
);
width = 288;
}
);
unicode = 776;
},
